<?xml version="1.0" encoding="UTF-8" standalone="no"?>
<!-- Created with Inkscape (http://www.inkscape.org/) -->

<svg
   width="199.67841mm"
   height="167.81403mm"
   viewBox="0 0 199.67841 167.81403"
   version="1.1"
   id="svg5"
   xml:space="preserve"
   sodipodi:docname="vexf.svg"
   inkscape:version="1.3 (0e150ed6c4, 2023-07-21)"
   xmlns:inkscape="http://www.inkscape.org/namespaces/inkscape"
   xmlns:sodipodi="http://sodipodi.sourceforge.net/DTD/sodipodi-0.dtd"
   xmlns="http://www.w3.org/2000/svg"
   xmlns:svg="http://www.w3.org/2000/svg"><sodipodi:namedview
     id="namedview1"
     pagecolor="#323232"
     bordercolor="#000000"
     borderopacity="0.25"
     inkscape:showpageshadow="2"
     inkscape:pageopacity="0.0"
     inkscape:pagecheckerboard="0"
     inkscape:deskcolor="#d1d1d1"
     inkscape:document-units="mm"
     inkscape:zoom="1.2818133"
     inkscape:cx="377.59009"
     inkscape:cy="317.12887"
     inkscape:window-width="1920"
     inkscape:window-height="1009"
     inkscape:window-x="-8"
     inkscape:window-y="-8"
     inkscape:window-maximized="1"
     inkscape:current-layer="layer3" /><defs
     id="defs2"><rect
       x="178.52219"
       y="548.22998"
       width="507.6543"
       height="158.88068"
       id="rect5972" /><rect
       x="178.52219"
       y="548.22998"
       width="507.6543"
       height="158.88068"
       id="rect5974" /></defs><g
     id="layer2"
     style="display:inline"
     transform="translate(-5.1312731,-6.0807494)"><g
       id="g6054"
       transform="translate(-53.750003,16.806362)"
       style="display:inline;fill:none;fill-opacity:1;fill-rule:evenodd;stroke:none;stroke-width:0"><path
         id="path2971-7"
         style="display:inline;fill:#ffffff;fill-opacity:1;fill-rule:evenodd;stroke:none;stroke-width:0.873125;stroke-linecap:round;stroke-miterlimit:1.1;stroke-dashoffset:148.5;paint-order:markers stroke fill"
         d="m 145.89437,54.3027 0.0236,0.02867 12.64583,3.6348 -5.74577,4.736156 31.86211,38.654244 7.28203,4.5452 17.14738,-14.134319 c 0,0 5.95836,9.930599 -14.0716,26.440999 -20.02996,16.51039 -28.64072,8.76613 -28.64072,8.76613 l 17.14737,-14.13433 -3.07173,-8.0157 -31.8621,-38.654232 -5.74577,4.736151 -1.15428,-13.107104 -0.0236,-0.02867 4.18756,-3.451744 z" /><rect
         style="display:inline;fill:#ffdc00;fill-opacity:1;fill-rule:evenodd;stroke:none;stroke-width:2.19604;stroke-linecap:round;stroke-linejoin:round;stroke-miterlimit:1.1;stroke-dashoffset:148.5;stroke-opacity:1;paint-order:markers stroke fill"
         id="rect2973-5"
         width="43.109303"
         height="11.550831"
         x="-96.867531"
         y="189.86531"
         ry="5.7754154"
         transform="matrix(-0.77164407,0.63605458,0.63605458,0.77164407,0,0)" /><path
         id="path2963-3"
         style="display:inline;fill:#ffdc00;fill-opacity:1;fill-rule:evenodd;stroke:none;stroke-width:0.873125;stroke-linecap:round;stroke-miterlimit:1.1;stroke-dashoffset:148.5;paint-order:markers stroke fill"
         d="m 171.60563,54.302702 -0.0236,0.02867 -12.64582,3.6348 5.74577,4.736156 -31.86211,38.654242 -7.28204,4.54521 -17.14737,-14.134327 c 0,0 -5.95837,9.930597 14.0716,26.440997 20.02996,16.5104 28.64072,8.76613 28.64072,8.76613 l -17.14738,-14.13433 3.07174,-8.0157 31.8621,-38.65423 5.74577,4.736151 1.15428,-13.107104 0.0236,-0.02867 -4.18756,-3.451744 z" /><rect
         style="display:inline;fill:#ffffff;fill-opacity:1;fill-rule:evenodd;stroke:none;stroke-width:8.39601;stroke-linecap:round;stroke-linejoin:round;stroke-miterlimit:1.1;stroke-dasharray:none;stroke-dashoffset:148.5;stroke-opacity:1;paint-order:markers stroke fill"
         id="rect2965-6"
         width="43.109303"
         height="11.550831"
         x="148.12946"
         y="-12.082009"
         ry="5.7754154"
         transform="rotate(39.498245)" /></g><g
       aria-label="3050"
       transform="matrix(0.89545348,0,0,1.1167526,9.1153845,1.2083333e-7)"
       id="text2608"
       style="font-size:26.6589px;line-height:1.25;font-family:Conthrax;-inkscape-font-specification:'Conthrax, Normal';display:inline;fill:#ffffff;stroke-width:0.780214"><path
         d="m 62.185794,35.653983 c -0.399883,0 -0.586495,0.186612 -0.586495,0.586496 v 2.372642 c 0,0.399883 0.186612,0.586495 0.586495,0.586495 h 13.036202 c 1.412922,0 1.999418,0.506519 1.999418,1.626193 v 0.933062 c 0,1.039697 -0.533178,1.599534 -2.292666,1.599534 h -12.583 c -0.399884,0 -0.613155,0.186612 -0.613155,0.586495 v 1.892782 c 0,0.399884 0.213271,0.586496 0.613155,0.586496 h 12.583 c 1.759488,0 2.319324,0.613155 2.319324,1.70617 v 0.986379 c 0,1.146333 -0.586495,1.652852 -1.972758,1.652852 h -13.08952 c -0.399883,0 -0.586495,0.186612 -0.586495,0.586495 v 2.372642 c 0,0.399884 0.186612,0.586496 0.586495,0.586496 h 14.28917 c 3.518975,0 4.718626,-1.786146 4.718626,-4.611989 v -1.546216 c 0,-1.519558 -0.533178,-2.692549 -1.70617,-3.438999 1.039697,-0.773108 1.572875,-1.91944 1.572875,-3.38568 v -1.279627 c 0,-2.959138 -1.386263,-4.398718 -5.065191,-4.398718 z"
         id="path674" /><path
         d="m 91.750525,35.653983 c -5.385098,0 -7.464492,1.91944 -7.464492,7.037949 v 4.585331 c 0,5.118508 2.079394,7.037949 7.464492,7.037949 h 6.158205 c 5.3851,0 7.46449,-1.919441 7.46449,-7.037949 v -4.585331 c 0,-5.118509 -2.07939,-7.037949 -7.46449,-7.037949 z m -3.518975,7.197903 c 0,-2.825844 0.773108,-3.65227 3.518975,-3.65227 h 6.158205 c 2.74587,0 3.51898,0.826426 3.51898,3.65227 v 4.265423 c 0,2.825844 -0.77311,3.65227 -3.51898,3.65227 h -6.158205 c -2.745867,0 -3.518975,-0.826426 -3.518975,-3.65227 z"
         id="path676" /><path
         d="m 110.86495,35.653983 c -1.78615,0 -2.47928,0.71979 -2.47928,2.266006 v 6.238183 c 0,1.572875 0.69313,2.266006 2.47928,2.266006 h 12.31641 c 0.95972,0 1.38626,0.506519 1.38626,1.492898 v 1.332945 c 0,0.933062 -0.39988,1.519558 -1.41292,1.519558 h -14.12922 c -0.39988,0 -0.61315,0.186612 -0.61315,0.586495 v 2.372642 c 0,0.399884 0.21327,0.586496 0.61315,0.586496 h 14.76903 c 3.22573,0 4.71863,-1.759487 4.71863,-4.3454 v -2.052736 c 0,-2.90582 -1.59954,-4.558671 -4.66531,-4.558671 h -10.98347 c -0.37322,0 -0.53317,-0.186613 -0.53317,-0.559837 v -3.039115 c 0,-0.373224 0.15995,-0.559837 0.53317,-0.559837 h 14.36915 c 0.39988,0 0.5865,-0.186612 0.5865,-0.586495 v -2.372642 c 0,-0.399884 -0.18662,-0.586496 -0.5865,-0.586496 z"
         id="path678" /><path
         d="m 138.93679,35.653983 c -5.3851,0 -7.46449,1.91944 -7.46449,7.037949 v 4.585331 c 0,5.118508 2.07939,7.037949 7.46449,7.037949 h 6.15821 c 5.38509,0 7.46449,-1.919441 7.46449,-7.037949 v -4.585331 c 0,-5.118509 -2.0794,-7.037949 -7.46449,-7.037949 z m -3.51897,7.197903 c 0,-2.825844 0.7731,-3.65227 3.51897,-3.65227 h 6.15821 c 2.74586,0 3.51897,0.826426 3.51897,3.65227 v 4.265423 c 0,2.825844 -0.77311,3.65227 -3.51897,3.65227 h -6.15821 c -2.74587,0 -3.51897,-0.826426 -3.51897,-3.65227 z"
         id="path680" /></g><g
       aria-label="HIGH STAKES"
       transform="matrix(0.35022327,0,0,0.35022327,-5.404185,-40.765064)"
       id="text5944"
       style="font-size:32.2334px;line-height:1.25;font-family:Conthrax;-inkscape-font-specification:'Conthrax, Normal';white-space:pre;shape-inside:url(#rect5972);display:inline;fill:#ffffff"><path
         d="m 181.39026,553.16218 c -0.4835,0 -0.74137,0.22563 -0.74137,0.70913 v 21.14511 c 0,0.4835 0.25787,0.70914 0.74137,0.70914 h 3.4812 c 0.4835,0 0.70914,-0.22564 0.70914,-0.70914 v -8.57408 h 15.08523 v 8.57408 c 0,0.4835 0.22563,0.70914 0.70913,0.70914 h 3.48121 c 0.4835,0 0.74137,-0.22564 0.74137,-0.70914 v -21.14511 c 0,-0.4835 -0.25787,-0.70913 -0.74137,-0.70913 h -3.48121 c -0.4835,0 -0.70913,0.22563 -0.70913,0.70913 V 562.252 H 185.5806 v -8.38069 c 0,-0.4835 -0.22564,-0.70913 -0.70914,-0.70913 z"
         id="path698" /><path
         d="m 210.59372,553.16218 c -0.4835,0 -0.74137,0.22563 -0.74137,0.70913 v 21.14511 c 0,0.4835 0.25787,0.70914 0.74137,0.70914 h 3.48121 c 0.4835,0 0.70913,-0.22564 0.70913,-0.70914 v -21.14511 c 0,-0.4835 -0.22563,-0.70913 -0.70913,-0.70913 z"
         id="path700" /><path
         d="m 227.83856,553.16218 c -6.51114,0 -9.02535,2.3208 -9.02535,8.50962 v 5.54414 c 0,6.18881 2.51421,8.50962 9.02535,8.50962 h 13.0223 c 2.57867,0 3.99694,-1.32157 3.99694,-4.93171 v -7.51038 c 0,-0.64467 -0.32233,-0.96701 -0.967,-0.96701 h -13.44133 c -0.45127,0 -0.70913,0.25787 -0.70913,0.74137 v 2.41751 c 0,0.4835 0.25786,0.74137 0.70913,0.74137 h 9.44439 c 0.2901,0 0.3868,0.12893 0.3868,0.41903 v 2.6109 c 0,1.45051 -0.4835,1.96624 -1.61167,1.96624 h -10.63702 c -3.32004,0 -4.28705,-0.99923 -4.28705,-4.41597 v -4.64161 c 0,-3.41674 0.96701,-4.38375 4.28705,-4.38375 h 16.14893 c 0.4835,0 0.70913,-0.25786 0.70913,-0.74136 v -3.15888 c 0,-0.4835 -0.22563,-0.70913 -0.70913,-0.70913 z"
         id="path702" /><path
         d="m 249.6606,553.16218 c -0.4835,0 -0.74137,0.22563 -0.74137,0.70913 v 21.14511 c 0,0.4835 0.25787,0.70914 0.74137,0.70914 h 3.4812 c 0.4835,0 0.70914,-0.22564 0.70914,-0.70914 v -8.57408 h 15.08523 v 8.57408 c 0,0.4835 0.22563,0.70914 0.70913,0.70914 h 3.48121 c 0.4835,0 0.74137,-0.22564 0.74137,-0.70914 v -21.14511 c 0,-0.4835 -0.25787,-0.70913 -0.74137,-0.70913 h -3.48121 c -0.4835,0 -0.70913,0.22563 -0.70913,0.70913 v 8.38069 h -15.08523 v -8.38069 c 0,-0.4835 -0.22564,-0.70913 -0.70914,-0.70913 z"
         id="path704" /><path
         d="m 294.23936,553.16218 c -3.90024,0 -5.70531,2.1274 -5.70531,5.25404 v 2.35304 c 0,3.54567 1.934,5.54415 5.64084,5.54415 h 12.08752 c 1.12817,0 1.67614,0.61243 1.67614,1.80507 v 1.32156 c 0,1.12817 -0.4835,1.80508 -1.70837,1.80508 h -16.92253 c -0.4835,0 -0.74137,0.22563 -0.74137,0.70913 v 3.06217 c 0,0.4835 0.25787,0.70914 0.74137,0.70914 h 17.8573 c 3.90024,0 5.70531,-2.12741 5.70531,-5.25405 v -2.57867 c 0,-3.54567 -1.934,-5.54414 -5.64084,-5.54414 h -12.08753 c -1.12817,0 -1.67613,-0.61244 -1.67613,-1.80507 v -1.09594 c 0,-1.12817 0.4835,-1.80507 1.70837,-1.80507 h 16.14893 c 0.4835,0 0.70913,-0.22563 0.70913,-0.70913 v -3.06218 c 0,-0.4835 -0.22563,-0.70913 -0.70913,-0.70913 z"
         id="path706" /><path
         d="m 315.90022,553.16218 c -0.4835,0 -0.74137,0.22563 -0.74137,0.70913 v 3.15888 c 0,0.4835 0.25787,0.74136 0.74137,0.74136 h 10.12128 v 17.24487 c 0,0.4835 0.22564,0.70914 0.70914,0.70914 h 3.51344 c 0.4835,0 0.70913,-0.22564 0.70913,-0.70914 v -17.24487 h 10.12129 c 0.4835,0 0.74137,-0.25786 0.74137,-0.74136 v -3.15888 c 0,-0.4835 -0.25787,-0.70913 -0.74137,-0.70913 z"
         id="path708" /><path
         d="m 352.90416,553.16218 c -1.3538,0 -2.3208,0.51573 -3.38451,2.44974 l -10.57255,19.37227 c -0.22564,0.41903 -0.12893,0.74137 0.41903,0.74137 h 4.19034 c 0.38681,0 0.58021,-0.0967 0.74137,-0.41904 l 2.22411,-4.1581 h 15.14969 l 2.28858,4.1581 c 0.16116,0.32234 0.32233,0.41904 0.74136,0.41904 h 4.09365 c 0.51573,0 0.61243,-0.32234 0.3868,-0.74137 l -10.66926,-19.37227 c -1.0637,-1.93401 -2.06294,-2.44974 -3.70684,-2.44974 z m 0.70914,4.80278 c 0.0967,-0.16117 0.1934,-0.22564 0.35456,-0.22564 h 0.1934 c 0.16117,0 0.25787,0.0645 0.35457,0.22564 l 5.12511,9.44438 h -11.08829 z"
         id="path710" /><path
         d="m 372.66324,553.16218 c -0.4835,0 -0.74137,0.22563 -0.74137,0.70913 v 21.14511 c 0,0.4835 0.25787,0.70914 0.74137,0.70914 h 3.4812 c 0.4835,0 0.70914,-0.22564 0.70914,-0.70914 v -8.83195 h 4.89947 c 1.99848,0 2.73984,0.32234 3.61015,1.4505 l 5.93094,7.67155 c 0.22563,0.2901 0.35457,0.41904 0.90254,0.41904 h 4.12587 c 0.64467,0 0.5802,-0.61244 0.41904,-0.83807 l -6.60785,-8.38068 c -0.80584,-1.03147 -1.57944,-1.77284 -2.44974,-2.32081 0.61243,-0.51573 1.19264,-1.19263 1.934,-2.15964 l 6.25328,-8.09058 c 0.22564,-0.2901 0.12894,-0.7736 -0.41903,-0.7736 h -3.99694 c -0.5802,0 -0.70914,0.12893 -0.93477,0.41903 l -5.54415,7.41368 c -0.93476,1.22487 -1.5472,1.45051 -3.5779,1.45051 h -4.54491 v -8.57409 c 0,-0.4835 -0.22564,-0.70913 -0.70914,-0.70913 z"
         id="path712" /><path
         d="m 407.24966,553.16218 c -6.51115,0 -9.02536,2.3208 -9.02536,8.50962 v 5.54414 c 0,6.18881 2.51421,8.50962 9.02536,8.50962 h 14.18269 c 0.4835,0 0.74137,-0.22564 0.74137,-0.70914 v -3.06217 c 0,-0.4835 -0.25787,-0.70913 -0.74137,-0.70913 h -14.08599 c -3.35228,0 -4.28705,-0.99924 -4.28705,-4.38375 v -0.54796 h 18.21187 c 0.4835,0 0.70914,-0.22564 0.70914,-0.70914 v -2.54644 c 0,-0.4835 -0.22564,-0.70913 -0.70914,-0.70913 h -18.21187 v -0.32234 c 0,-3.3845 0.93477,-4.38374 4.28705,-4.38374 h 14.08599 c 0.4835,0 0.74137,-0.22563 0.74137,-0.70913 v -3.06218 c 0,-0.4835 -0.25787,-0.70913 -0.74137,-0.70913 z"
         id="path714" /><path
         d="m 431.19909,553.16218 c -3.90024,0 -5.70531,2.1274 -5.70531,5.25404 v 2.35304 c 0,3.54567 1.934,5.54415 5.64084,5.54415 h 12.08753 c 1.12817,0 1.67613,0.61243 1.67613,1.80507 v 1.32156 c 0,1.12817 -0.4835,1.80508 -1.70837,1.80508 h -16.92253 c -0.4835,0 -0.74137,0.22563 -0.74137,0.70913 v 3.06217 c 0,0.4835 0.25787,0.70914 0.74137,0.70914 h 17.8573 c 3.90024,0 5.70531,-2.12741 5.70531,-5.25405 v -2.57867 c 0,-3.54567 -1.934,-5.54414 -5.64084,-5.54414 h -12.08753 c -1.12816,0 -1.67613,-0.61244 -1.67613,-1.80507 v -1.09594 c 0,-1.12817 0.4835,-1.80507 1.70837,-1.80507 h 16.14893 c 0.4835,0 0.70913,-0.22563 0.70913,-0.70913 v -3.06218 c 0,-0.4835 -0.22563,-0.70913 -0.70913,-0.70913 z"
         id="path716" /></g><g
       aria-label="2024-2025"
       transform="matrix(0.35022327,0,0,0.35022327,2.0555511,-27.73773)"
       id="text5948"
       style="font-size:32.2334px;line-height:1.25;font-family:Conthrax;-inkscape-font-specification:'Conthrax, Normal';white-space:pre;shape-inside:url(#rect5974);display:inline;fill:#ffffff"><path
         d="m 181.84152,553.16218 c -0.4835,0 -0.70913,0.22563 -0.70913,0.70913 v 2.86878 c 0,0.4835 0.22563,0.70913 0.70913,0.70913 h 16.3101 c 1.22487,0 1.70837,0.70914 1.70837,1.8373 v 1.38604 c 0,1.19264 -0.51573,1.80507 -1.67613,1.80507 h -12.24869 c -3.70684,0 -5.64085,1.99847 -5.64085,5.54415 v 4.96394 c 0,1.86954 0.83807,2.73984 2.99771,2.73984 h 20.56491 c 0.4835,0 0.74136,-0.22564 0.74136,-0.70914 v -2.86877 c 0,-0.4835 -0.25786,-0.70913 -0.74136,-0.70913 h -18.14741 c -0.45127,0 -0.64467,-0.22564 -0.64467,-0.67691 v -2.73983 c 0,-1.22487 0.51574,-1.83731 1.67614,-1.83731 h 12.24869 c 3.70684,0 5.64085,-1.99847 5.64085,-5.51191 v -2.25634 c 0,-3.12664 -1.80507,-5.25404 -5.70531,-5.25404 z"
         id="path719" /><path
         d="m 217.23382,553.16218 c -6.51114,0 -9.02535,2.3208 -9.02535,8.50962 v 5.54414 c 0,6.18881 2.51421,8.50962 9.02535,8.50962 h 7.44592 c 6.51115,0 9.02535,-2.32081 9.02535,-8.50962 v -5.54414 c 0,-6.18882 -2.5142,-8.50962 -9.02535,-8.50962 z m -4.2548,8.70302 c 0,-3.41674 0.93476,-4.41598 4.2548,-4.41598 h 7.44592 c 3.32004,0 4.25481,0.99924 4.25481,4.41598 v 5.15734 c 0,3.41674 -0.93477,4.41598 -4.25481,4.41598 h -7.44592 c -3.32004,0 -4.2548,-0.99924 -4.2548,-4.41598 z"
         id="path721" /><path
         d="m 238.89466,553.16218 c -0.48351,0 -0.70914,0.22563 -0.70914,0.70913 v 2.86878 c 0,0.4835 0.22563,0.70913 0.70914,0.70913 h 16.3101 c 1.22486,0 1.70837,0.70914 1.70837,1.8373 v 1.38604 c 0,1.19264 -0.51574,1.80507 -1.67614,1.80507 H 242.9883 c -3.70684,0 -5.64085,1.99847 -5.64085,5.54415 v 4.96394 c 0,1.86954 0.83807,2.73984 2.99771,2.73984 h 20.56491 c 0.4835,0 0.74136,-0.22564 0.74136,-0.70914 v -2.86877 c 0,-0.4835 -0.25786,-0.70913 -0.74136,-0.70913 h -18.14741 c -0.45126,0 -0.64466,-0.22564 -0.64466,-0.67691 v -2.73983 c 0,-1.22487 0.51573,-1.83731 1.67613,-1.83731 h 12.24869 c 3.70684,0 5.64085,-1.99847 5.64085,-5.51191 v -2.25634 c 0,-3.12664 -1.80507,-5.25404 -5.70531,-5.25404 z"
         id="path723" /><path
         d="m 265.80957,564.0893 c -0.99923,0.6769 -1.2571,1.41827 -1.2571,2.61091 v 2.44973 c 0,1.16041 0.6769,1.96624 2.06294,1.96624 h 16.95476 v 3.90024 c 0,0.4835 0.25787,0.70914 0.74137,0.70914 h 3.32004 c 0.4835,0 0.70914,-0.22564 0.70914,-0.70914 v -3.90024 h 2.64314 c 0.4835,0 0.70913,-0.22563 0.70913,-0.70913 v -2.61091 c 0,-0.4835 -0.22563,-0.74137 -0.70913,-0.74137 h -2.64314 v -10.60478 c 0,-2.61091 -0.93477,-3.28781 -2.80431,-3.28781 h -1.90177 c -1.4505,0 -2.15964,0.25787 -3.22334,0.967 z m 4.06141,2.73984 v -0.1934 c 0,-0.22563 0.0645,-0.35457 0.1934,-0.45127 l 12.34539,-8.47738 c 0.2901,-0.1934 0.45127,-0.25787 0.70914,-0.25787 h 0.1934 c 0.16116,0 0.25786,0.0967 0.25786,0.35457 v 9.25098 h -13.44132 c -0.16117,0 -0.25787,-0.0967 -0.25787,-0.22563 z"
         id="path725" /><path
         d="m 293.85265,562.89667 c -0.3868,0 -0.5802,0.1934 -0.5802,0.5802 v 2.3208 c 0,0.3868 0.1934,0.5802 0.5802,0.5802 h 9.70226 c 0.3868,0 0.5802,-0.1934 0.5802,-0.5802 v -2.3208 c 0,-0.3868 -0.1934,-0.5802 -0.5802,-0.5802 z"
         id="path727" /><path
         d="m 308.19651,553.16218 c -0.4835,0 -0.70913,0.22563 -0.70913,0.70913 v 2.86878 c 0,0.4835 0.22563,0.70913 0.70913,0.70913 h 16.3101 c 1.22487,0 1.70837,0.70914 1.70837,1.8373 v 1.38604 c 0,1.19264 -0.51573,1.80507 -1.67613,1.80507 h -12.2487 c -3.70684,0 -5.64084,1.99847 -5.64084,5.54415 v 4.96394 c 0,1.86954 0.83807,2.73984 2.99771,2.73984 h 20.5649 c 0.4835,0 0.74137,-0.22564 0.74137,-0.70914 v -2.86877 c 0,-0.4835 -0.25787,-0.70913 -0.74137,-0.70913 h -18.1474 c -0.45127,0 -0.64467,-0.22564 -0.64467,-0.67691 v -2.73983 c 0,-1.22487 0.51574,-1.83731 1.67614,-1.83731 h 12.24869 c 3.70684,0 5.64085,-1.99847 5.64085,-5.51191 v -2.25634 c 0,-3.12664 -1.80508,-5.25404 -5.70532,-5.25404 z"
         id="path729" /><path
         d="m 343.58881,553.16218 c -6.51114,0 -9.02535,2.3208 -9.02535,8.50962 v 5.54414 c 0,6.18881 2.51421,8.50962 9.02535,8.50962 h 7.44592 c 6.51114,0 9.02535,-2.32081 9.02535,-8.50962 v -5.54414 c 0,-6.18882 -2.51421,-8.50962 -9.02535,-8.50962 z m -4.25481,8.70302 c 0,-3.41674 0.93477,-4.41598 4.25481,-4.41598 h 7.44592 c 3.32004,0 4.25481,0.99924 4.25481,4.41598 v 5.15734 c 0,3.41674 -0.93477,4.41598 -4.25481,4.41598 h -7.44592 c -3.32004,0 -4.25481,-0.99924 -4.25481,-4.41598 z"
         id="path731" /><path
         d="m 365.24964,553.16218 c -0.4835,0 -0.70914,0.22563 -0.70914,0.70913 v 2.86878 c 0,0.4835 0.22564,0.70913 0.70914,0.70913 h 16.3101 c 1.22486,0 1.70837,0.70914 1.70837,1.8373 v 1.38604 c 0,1.19264 -0.51574,1.80507 -1.67614,1.80507 h -12.24869 c -3.70684,0 -5.64085,1.99847 -5.64085,5.54415 v 4.96394 c 0,1.86954 0.83807,2.73984 2.99771,2.73984 h 20.56491 c 0.4835,0 0.74137,-0.22564 0.74137,-0.70914 v -2.86877 c 0,-0.4835 -0.25787,-0.70913 -0.74137,-0.70913 h -18.14741 c -0.45126,0 -0.64466,-0.22564 -0.64466,-0.67691 v -2.73983 c 0,-1.22487 0.51573,-1.83731 1.67613,-1.83731 h 12.24869 c 3.70684,0 5.64085,-1.99847 5.64085,-5.51191 v -2.25634 c 0,-3.12664 -1.80507,-5.25404 -5.70531,-5.25404 z"
         id="path733" /><path
         d="m 394.5176,553.16218 c -2.15964,0 -2.99771,0.8703 -2.99771,2.73984 v 7.54261 c 0,1.90177 0.83807,2.73984 2.99771,2.73984 h 14.89183 c 1.1604,0 1.67613,0.61244 1.67613,1.80507 v 1.61167 c 0,1.12817 -0.4835,1.83731 -1.70837,1.83731 h -17.0837 c -0.4835,0 -0.74136,0.22563 -0.74136,0.70913 v 2.86877 c 0,0.4835 0.25786,0.70914 0.74136,0.70914 h 17.85731 c 3.90024,0 5.70531,-2.12741 5.70531,-5.25405 v -2.48197 c 0,-3.51344 -1.93401,-5.51191 -5.64085,-5.51191 H 396.9351 c -0.45126,0 -0.64467,-0.22563 -0.64467,-0.6769 v -3.67461 c 0,-0.45127 0.19341,-0.6769 0.64467,-0.6769 h 17.3738 c 0.48351,0 0.70914,-0.22563 0.70914,-0.70913 v -2.86878 c 0,-0.4835 -0.22563,-0.70913 -0.70914,-0.70913 z"
         id="path735" /></g><g
       aria-label="  PENINSULA   ROBOTICS"
       transform="translate(9.2604275,-4.0412023)"
       id="text5930"
       style="font-size:16.9333px;line-height:1.25;font-family:Conthrax;-inkscape-font-specification:'Conthrax, Normal';white-space:pre;display:inline;fill:#ffdc00;stroke-width:0.264583"><path
         d="m -4.1104551,95.066261 c -0.070789,0.331185 0.059409,0.532172 0.3905944,0.602961 l 10.7303985,2.293559 c 0.2483889,0.05309 0.3926192,-0.05461 0.4457108,-0.302995 l 0.3822599,-1.788399 c 0.053092,-0.248389 -0.038047,-0.38908 -0.2864359,-0.442172 L 4.3726953,94.749642 5.8380247,87.89411 C 6.3795595,85.360543 5.4232977,84.082569 3.187798,83.604744 L 1.962413,83.342825 c -2.23549968,-0.477824 -3.6306524,0.297549 -4.1721872,2.831115 z m 2.91924,-1.505872 c -0.1490333,-0.03186 -0.1845533,-0.10871 -0.1526983,-0.257743 l 1.30959393,-6.126926 c 0.24068213,-1.126029 0.80938666,-1.437367 1.80294207,-1.225 l 0.6292518,0.134499 c 0.9935554,0.212366 1.3852878,0.728992 1.1446056,1.855021 l -1.3556067,6.342196 z"
         id="path621" /><path
         d="m 1.3716562,74.8376 c -1.25786258,3.180846 -0.60980487,4.857441 2.4135739,6.053033 l 2.7084435,1.071052 c 3.0233788,1.195592 4.6428554,0.415691 5.9007174,-2.765155 l 2.739899,-6.928577 c 0.09341,-0.236201 0.03299,-0.405764 -0.203207,-0.49917 l -1.495942,-0.591569 c -0.236202,-0.09341 -0.396246,-0.01102 -0.489651,0.225181 l -2.721218,6.881336 C 9.5766598,79.921394 8.9079258,80.185012 7.2545156,79.531172 L 6.9868206,79.425313 10.5051,70.528391 c 0.0934,-0.236202 0.02677,-0.390018 -0.209434,-0.483424 L 9.0516714,69.553031 C 8.8154699,69.459625 8.6616533,69.526263 8.5682476,69.762465 L 5.0499685,78.659386 4.8925009,78.597116 C 3.2390906,77.943277 2.9315252,77.293582 3.5791376,75.655919 l 2.7212176,-6.881336 c 0.093406,-0.236202 0.032995,-0.405765 -0.2032068,-0.499171 L 4.6012058,67.683843 C 4.3650043,67.590437 4.2049606,67.672822 4.111555,67.909024 Z"
         id="path623" /><path
         d="M 6.8040387,62.598988 C 6.2630219,63.478902 6.337588,64.101211 7.5059978,64.81961 l 8.2798432,5.090879 c 0.216372,0.133037 0.388299,0.07972 0.521335,-0.13665 l 0.931259,-1.514605 c 0.133037,-0.216372 0.09415,-0.37943 -0.122225,-0.512467 L 9.5864572,63.117083 C 9.4854835,63.054999 9.4599473,62.999542 9.513162,62.912993 L 9.592984,62.78317 C 9.646199,62.69662 9.7016558,62.671085 9.8092563,62.657731 L 20.15675,61.60541 c 1.11928,-0.106929 1.338866,-0.270086 1.879882,-1.15 l 0.762745,-1.240534 c 0.541017,-0.879914 0.466451,-1.502223 -0.701959,-2.220622 l -8.279843,-5.090879 c -0.216372,-0.133037 -0.379429,-0.09415 -0.512466,0.122225 l -0.931259,1.514605 c -0.133037,0.216372 -0.09415,0.37943 0.122225,0.512467 l 7.529753,4.629684 c 0.100974,0.06208 0.117641,0.131966 0.07329,0.20409 l -0.07982,0.129823 c -0.05321,0.08655 -0.117541,0.12651 -0.216272,0.125439 L 9.4644045,60.179605 c -1.0726923,0.09582 -1.3122585,0.226811 -1.8798827,1.149999 z"
         id="path625" /><path
         d="m 16.144883,48.588263 c -0.158009,0.198869 -0.149474,0.37867 0.0494,0.536679 l 8.697217,6.910247 c 0.19887,0.158009 0.375947,0.125683 0.533955,-0.07319 l 1.137663,-1.431859 c 0.158009,-0.198869 0.13894,-0.365412 -0.05993,-0.523421 l -8.697217,-6.910247 c -0.198869,-0.158008 -0.365413,-0.13894 -0.523421,0.05993 z"
         id="path627" /><path
         d="m 20.793315,42.820357 c -0.734543,0.726218 -0.809932,1.348428 0.15439,2.323806 l 6.833595,6.911933 c 0.178578,0.180626 0.358248,0.169676 0.538874,-0.0089 l 1.264378,-1.250048 c 0.180625,-0.178578 0.181581,-0.346207 0.003,-0.526832 L 23.373029,43.98455 c -0.08334,-0.08429 -0.09497,-0.144227 -0.02272,-0.215658 l 0.108375,-0.107147 c 0.07225,-0.07143 0.132185,-0.08306 0.239878,-0.07048 l 10.301299,1.435702 c 1.112644,0.162001 1.364701,0.05567 2.099245,-0.670545 l 1.035586,-1.023849 c 0.734543,-0.726218 0.809932,-1.348429 -0.15439,-2.323806 l -6.833595,-6.911934 c -0.178578,-0.180625 -0.346206,-0.181581 -0.526832,-0.003 l -1.264378,1.250047 c -0.180626,0.178579 -0.181581,0.346207 -0.003,0.526832 l 6.214524,6.285766 c 0.08334,0.08429 0.08293,0.156133 0.02272,0.215659 l -0.108375,0.107147 c -0.07225,0.07143 -0.144227,0.09497 -0.239879,0.07048 L 23.952229,41.102152 c -1.06475,-0.161728 -1.328576,-0.09139 -2.099244,0.670546 z"
         id="path629" /><path
         d="m 35.578096,29.53444 c -1.684373,1.166619 -1.82758,2.62529 -0.892357,3.975573 l 0.703828,1.016192 c 1.060562,1.531248 2.49356,1.815827 4.09441,0.707057 l 5.220165,-3.615553 c 0.487215,-0.337451 0.907051,-0.236868 1.263785,0.278188 l 0.395301,0.570738 c 0.337451,0.487215 0.331116,0.924167 -0.197861,1.290543 l -7.30823,5.061774 c -0.208807,0.144622 -0.25268,0.319197 -0.108058,0.528004 l 0.91594,1.322441 c 0.144622,0.208807 0.323476,0.229118 0.532283,0.0845 l 7.711923,-5.341377 c 1.684373,-1.166618 1.82758,-2.62529 0.892357,-3.975573 l -0.771318,-1.113635 c -1.060562,-1.531248 -2.49356,-1.815827 -4.09441,-0.707057 l -5.220165,3.615553 c -0.487215,0.337452 -0.907051,0.236868 -1.263785,-0.278188 l -0.32781,-0.473295 c -0.337452,-0.487215 -0.331116,-0.924166 0.19786,-1.290543 l 6.97414,-4.830378 c 0.208807,-0.144622 0.238759,-0.309556 0.09414,-0.518362 L 43.474294,24.5186 c -0.144622,-0.208807 -0.309555,-0.238759 -0.518362,-0.09414 z"
         id="path631" /><path
         d="m 47.41869,21.758986 c -0.230788,0.106079 -0.304371,0.270355 -0.198292,0.501143 l 2.927779,6.369743 c 1.35781,2.954084 3.067086,3.510254 6.175028,2.081725 l 4.431126,-2.036716 c 3.123328,-1.435602 3.798859,-3.087922 2.441049,-6.042006 L 60.267601,16.263133 C 60.161522,16.032345 60.004317,15.974147 59.77353,16.080226 l -1.677058,0.770841 c -0.230788,0.106079 -0.288985,0.263283 -0.182907,0.494071 l 2.8217,6.138955 c 0.749625,1.6309 0.522665,2.312948 -1.062078,3.041356 l -4.261881,1.958925 c -1.584743,0.728409 -2.265548,0.463605 -3.015173,-1.167295 l -2.8217,-6.138955 C 49.468354,20.947336 49.31115,20.889138 49.080362,20.995217 Z"
         id="path633" /><path
         d="m 64.51153,14.508242 c -0.245439,0.06539 -0.345825,0.214799 -0.280437,0.460238 l 1.804705,6.774109 c 0.836965,3.141616 2.427108,3.979705 5.73235,3.099148 l 6.725021,-1.791628 c 0.245439,-0.06539 0.329463,-0.21044 0.264075,-0.455879 l -0.427201,-1.603533 c -0.06539,-0.245439 -0.21044,-0.329462 -0.455879,-0.264075 l -6.626846,1.765473 c -1.685346,0.448997 -2.311358,0.07253 -2.773433,-1.661901 l -1.739317,-6.52867 c -0.06539,-0.245439 -0.210441,-0.329463 -0.455879,-0.264075 z"
         id="path635" /><path
         d="m 85.789619,10.227127 c -0.708262,0.06456 -1.189568,0.380492 -1.653828,1.443023 l -4.607336,10.639092 c -0.09806,0.229985 -0.0321,0.394007 0.254579,0.367875 l 2.19224,-0.199836 c 0.20236,-0.01845 0.298929,-0.07826 0.367874,-0.254579 l 0.965276,-2.281443 7.92579,-0.722481 1.395598,2.066236 c 0.09969,0.160948 0.188617,0.203852 0.407841,0.183868 l 2.14165,-0.195223 c 0.269814,-0.02459 0.305032,-0.197841 0.167005,-0.406305 l -6.505633,-9.626082 c -0.648724,-0.961075 -1.196084,-1.183236 -2.056116,-1.104839 z m 0.600037,2.478826 c 0.0429,-0.08893 0.09042,-0.127267 0.174736,-0.134953 l 0.101181,-0.0092 c 0.08432,-0.0077 0.137981,0.02143 0.196257,0.101134 l 3.131676,4.696558 -5.801004,0.528795 z"
         id="path637" /><path
         d="m 117.51653,11.960673 c -0.32581,-0.09241 -0.53492,0.02429 -0.62733,0.350109 l -2.99405,10.556397 c -0.0693,0.244361 0.0287,0.39536 0.27303,0.464667 l 1.7594,0.499008 c 0.24436,0.06931 0.39074,-0.01238 0.46005,-0.256746 l 0.91947,-3.241857 5.26191,1.492405 1.61288,4.118504 c 0.0562,0.174339 0.11913,0.262605 0.39607,0.341152 l 2.10151,0.596038 c 0.29323,0.08317 0.39269,-0.205445 0.32729,-0.347203 l -1.80618,-4.243732 c 1.79831,0.175623 2.82468,-0.712557 3.35141,-2.569701 l 0.26336,-0.928572 c 0.62376,-2.199249 -0.0582,-3.64236 -2.55069,-4.349288 z m 1.31532,2.995635 c 0.037,-0.130326 0.1206,-0.177007 0.26722,-0.135423 l 6.02757,1.709566 c 1.10777,0.31419 1.38105,0.902133 1.10382,1.879577 l -0.19406,0.684211 c -0.27722,0.977444 -0.81849,1.334364 -1.92626,1.020174 l -6.23935,-1.769632 z"
         id="path639" /><path
         d="m 137.5908,18.842043 c -3.07135,-1.505607 -4.79396,-0.992243 -6.22503,1.927053 l -1.28201,2.615204 c -1.43107,2.919297 -0.78176,4.595406 2.28959,6.101012 l 4.69824,2.303131 c 3.08655,1.51306 4.79396,0.992243 6.22503,-1.927053 l 1.282,-2.615204 c 1.43108,-2.919297 0.79697,-4.587952 -2.28958,-6.101012 z m -3.98071,3.23469 c 0.78262,-1.59649 1.46982,-1.84423 3.0359,-1.07652 l 4.51579,2.213689 c 1.56608,0.76771 1.79116,1.46266 1.00854,3.05915 l -1.11802,2.280701 c -0.78262,1.59649 -1.46982,1.84423 -3.0359,1.07652 l -4.51579,-2.213689 c -1.56608,-0.76771 -1.79116,-1.46266 -1.00854,-3.05915 z"
         id="path641" /><path
         d="m 150.57915,25.815804 c -0.27221,-0.201477 -0.50906,-0.166108 -0.71054,0.106108 l -6.44727,8.710913 c -0.20148,0.272216 -0.16611,0.509063 0.10611,0.71054 l 8.08481,5.983875 c 1.81024,1.339824 3.08406,0.871151 4.15189,-0.571594 l 0.58429,-0.789427 c 0.59436,-0.803037 0.72809,-1.609926 0.36038,-2.45089 0.85372,0.042 1.57626,-0.308028 2.15047,-1.083844 l 0.48355,-0.653318 c 1.1182,-1.510799 0.95442,-2.769624 -0.92387,-4.159817 z m 3.22501,10.81369 c 0.89832,0.664875 0.96252,1.175864 0.54949,1.733907 l -0.38281,0.517211 c -0.4231,0.571653 -0.90033,0.618707 -1.6217,0.08479 l -5.58043,-4.130284 c -0.1225,-0.09067 -0.13665,-0.185403 -0.046,-0.307901 l 1.501,-2.028009 z m -3.07203,-7.519373 c 0.0907,-0.122498 0.1854,-0.136645 0.3079,-0.04598 l 5.56682,4.120211 c 0.70776,0.523841 0.81579,1.004071 0.40276,1.562114 l -0.34251,0.462767 c -0.39288,0.530821 -0.86657,0.60156 -1.76489,-0.06332 l -5.58042,-4.130284 z"
         id="path643" /><path
         d="m 167.33741,39.680558 c -2.3444,-2.490746 -4.13745,-2.616894 -6.50489,-0.388559 l -2.12083,1.996217 c -2.36745,2.228336 -2.34998,4.025735 -0.006,6.516481 l 3.58623,3.810102 c 2.356,2.503077 4.13744,2.616894 6.50488,0.388559 l 2.12084,-1.996217 c 2.36744,-2.228336 2.36157,-4.013404 0.006,-6.516481 z m -4.86482,1.625662 c 1.29469,-1.218621 2.02511,-1.208492 3.22052,0.06154 l 3.44696,3.662137 c 1.19541,1.270034 1.16134,1.99973 -0.13335,3.218351 l -1.84957,1.740887 c -1.29469,1.218621 -2.02511,1.208492 -3.22052,-0.06154 l -3.44696,-3.662137 c -1.19541,-1.270034 -1.16134,-1.999731 0.13336,-3.218351 z"
         id="path645" /><path
         d="m 176.29245,49.755253 c -0.13937,-0.212349 -0.31279,-0.260563 -0.52514,-0.121194 l -1.38735,0.910541 c -0.21235,0.139369 -0.25127,0.326952 -0.1119,0.539301 l 2.91745,4.445174 -7.57379,4.970814 c -0.21235,0.139368 -0.24641,0.303503 -0.10704,0.515852 l 1.01275,1.54307 c 0.13937,0.21235 0.3035,0.246407 0.51585,0.107039 l 7.57379,-4.970814 2.91744,4.445174 c 0.13937,0.212349 0.32696,0.251272 0.53931,0.111904 l 1.38734,-0.910542 c 0.21235,-0.139369 0.23712,-0.31766 0.0978,-0.530009 z"
         id="path647" /><path
         d="m 185.08413,64.083989 c -0.11512,-0.226417 -0.28217,-0.293454 -0.50859,-0.17834 l -9.90197,5.034287 c -0.22642,0.115113 -0.27069,0.289588 -0.15557,0.516005 l 0.82881,1.630203 c 0.11512,0.226417 0.2745,0.278359 0.50091,0.163246 l 9.90198,-5.034287 c 0.22641,-0.115114 0.27835,-0.274495 0.16324,-0.500912 z"
         id="path649" /><path
         d="m 189.38422,73.49589 c -1.20929,-3.199628 -2.81671,-4.004094 -5.85794,-2.854671 l -2.72443,1.029693 c -3.04123,1.149424 -3.71474,2.815958 -2.50545,6.015586 l 2.69995,7.143724 c 0.0898,0.237596 0.24258,0.306568 0.48018,0.21677 l 1.55229,-0.586685 c 0.2376,-0.0898 0.30657,-0.242584 0.21677,-0.48018 l -2.66403,-7.048686 c -0.61662,-1.631493 -0.30518,-2.292269 1.37383,-2.926847 l 2.24924,-0.850095 c 1.67902,-0.634578 2.33381,-0.338983 2.95043,1.292511 l 2.66403,7.048685 c 0.0898,0.237597 0.25842,0.300582 0.49601,0.210783 l 1.5523,-0.586685 c 0.23759,-0.0898 0.30657,-0.242583 0.21677,-0.480179 z"
         id="path651" /><path
         d="m 193.77546,87.368285 c -0.40201,-2.009106 -1.68393,-2.719665 -3.29454,-2.397398 l -1.2121,0.242531 c -1.82646,0.365458 -2.65658,1.567694 -2.27451,3.477174 l 1.24588,6.226567 c 0.11628,0.581146 -0.14272,0.926541 -0.75708,1.049468 l -0.68077,0.136216 c -0.58114,0.116282 -0.97967,-0.06301 -1.10592,-0.69397 l -1.74423,-8.717193 c -0.0498,-0.249062 -0.19264,-0.358639 -0.4417,-0.308804 l -1.5774,0.315622 c -0.24906,0.04984 -0.33871,0.205925 -0.28888,0.454988 l 1.84058,9.198714 c 0.40201,2.009105 1.68393,2.719665 3.29454,2.397397 l 1.32833,-0.265787 c 1.82646,-0.365458 2.65658,-1.567694 2.27451,-3.477174 l -1.24588,-6.226567 c -0.11628,-0.581146 0.14272,-0.926541 0.75707,-1.049468 l 0.56455,-0.11296 c 0.58114,-0.116282 0.97966,0.06301 1.10591,0.69397 l 1.6645,8.318693 c 0.0498,0.249063 0.18932,0.342035 0.43838,0.2922 l 1.5774,-0.315622 c 0.24906,-0.04984 0.34203,-0.189321 0.2922,-0.438384 z"
         id="path653" /></g></g><g
     id="layer3"
     transform="translate(-5.1312731,-6.0807494)"
     style="display:inline;opacity:0.5"><path
       style="display:none;opacity:1;fill:#ffd500;fill-opacity:1;stroke-width:0.129149"
       d="m 142.02429,105.97776 c -0.44251,-0.13362 -0.67607,-0.42559 -1.13884,-1.4237 -0.57148,-1.23254 -0.87168,-1.3579 -2.72319,-1.13716 -1.49776,0.17877 -1.9285,0.39809 -2.08835,1.06441 -0.33706,1.40488 -0.81046,1.88992 -1.9792,2.02784 -0.79347,0.0937 -1.38485,-0.0674 -1.93003,-0.52555 -0.34099,-0.28655 -0.44935,-0.50671 -0.62581,-1.27138 -0.18526,-0.80269 -0.2661,-0.95761 -0.61226,-1.1731 -0.54076,-0.33663 -2.50256,-0.78229 -3.12186,-0.70921 -0.45983,0.0543 -0.5391,0.12374 -0.93775,0.82198 -0.49113,0.8602 -0.72526,1.06487 -1.29497,1.13211 -0.48472,0.0572 -1.82838,-0.41755 -2.50971,-0.88673 -0.63076,-0.43438 -0.66042,-0.67951 -0.23367,-1.92886 0.18608,-0.54433 0.32163,-1.13142 0.30119,-1.30464 -0.0486,-0.41144 -1.95322,-1.93282 -2.50888,-2.00399 -0.3232,-0.0414 -0.58584,0.0834 -1.48511,0.70551 -0.89446,0.61883 -1.16281,0.74674 -1.48057,0.7057 -0.24861,-0.0321 -0.89249,-0.46587 -1.79146,-1.20686 -0.77186,-0.63621 -1.40802,-1.191454 -1.4137,-1.233874 -0.0262,-0.196502 3.07331,-3.860397 3.35715,-3.968329 0.35542,-0.135147 1.16913,0.325135 3.33793,1.888155 4.32298,3.115488 9.66702,4.755768 15.34409,4.709598 5.99065,-0.0487 12.95056,-3.337396 17.38395,-8.214244 1.37713,-1.514882 2.38286,-2.4567 2.65812,-2.489185 0.28789,-0.03397 2.00146,1.104812 2.83293,1.882672 1.69365,1.584459 1.70511,1.643855 0.60188,3.118721 -0.44492,0.594794 -0.95987,1.183535 -1.14435,1.308306 -0.3912,0.264613 -0.7498,0.197459 -1.89595,-0.355058 -1.02253,-0.492915 -1.45429,-0.393869 -2.45627,0.563392 -1.41654,1.353328 -1.51421,1.668115 -0.91021,2.933576 0.49968,1.04691 0.5563,1.33544 0.34067,1.73628 -0.28376,0.52749 -2.14197,1.55202 -2.68722,1.4816 -0.17171,-0.0221 -0.73539,-0.37926 -1.25262,-0.79351 l -0.94042,-0.75321 -0.66932,0.15209 c -0.90414,0.20548 -2.59952,0.98676 -2.99317,1.37931 -0.31806,0.31715 -0.31863,0.3253 -0.10003,1.42891 0.20557,1.03797 0.20363,1.12912 -0.0309,1.40566 -0.40703,0.48002 -2.59317,1.11676 -3.20251,0.93278 z M 108.78877,89.58963 c -0.3713,-0.16144 -0.93205,-1.003419 -1.53714,-2.308111 -0.73909,-1.593624 -0.73082,-1.80766 0.0909,-2.351146 0.35673,-0.235941 0.75268,-0.546031 0.87988,-0.689082 0.58883,-0.662253 0.6917,-2.237127 0.20177,-3.089292 -0.33037,-0.574644 -0.96101,-0.986269 -1.77813,-1.160587 -1.07031,-0.228341 -1.28748,-0.519752 -1.52065,-2.040604 -0.26949,-1.757956 -0.15041,-2.1269 0.81105,-2.512546 1.54283,-0.61883 2.22588,-1.343188 2.2926,-2.431231 0.0532,-0.868316 -0.30675,-1.463061 -1.46868,-2.426365 -0.63824,-0.529142 -1.09188,-1.005839 -1.1243,-1.181468 -0.12336,-0.66812 -0.0706,-1.118845 0.23639,-2.019331 0.45002,-1.320115 0.70891,-1.499482 2.26076,-1.56631 1.09956,-0.04735 1.21401,-0.07555 1.5108,-0.37229 0.39838,-0.3983 1.11174,-2.413884 1.04738,-2.959285 -0.0349,-0.296019 -0.22121,-0.557678 -0.70079,-0.984358 -0.92659,-0.824393 -1.14794,-1.118617 -1.10304,-1.466191 0.0845,-0.654507 1.82609,-3.037688 2.25927,-3.091618 0.0727,-0.0091 0.61009,0.196568 1.19415,0.456937 0.76972,0.343139 1.1428,0.442646 1.35584,0.361635 0.36427,-0.138519 1.40457,-1.307967 1.81147,-2.036344 0.3769,-0.674705 0.33219,-1.131105 -0.20656,-2.109429 -0.6087,-1.105185 -0.60469,-1.390427 0.0294,-2.096788 0.29261,-0.32596 0.82121,-0.779037 1.17468,-1.006839 1.00285,-0.646323 1.20437,-0.581334 2.78282,0.897427 0.28222,0.264404 0.49797,0.351455 0.78661,0.317391 0.624,-0.07364 2.65586,-1.197083 3.00735,-1.662803 0.29331,-0.38863 0.30096,-0.466571 0.15264,-1.553598 -0.21413,-1.569519 -0.14884,-1.7535 0.8332,-2.346392 1.09901,-0.663523 2.01675,-0.965971 2.48037,-0.817434 0.63576,0.203687 1.11379,1.371707 2.17169,5.306138 l 0.13842,0.51505 -2.49447,1.161747 c -4.53853,2.11374 -7.30233,4.20254 -9.98078,7.543183 -3.85305,4.80564 -5.78494,10.382484 -5.6463,16.299333 0.0572,2.441878 0.38108,3.885222 2.2668,10.101786 0.2564,0.845272 0.25638,0.845895 -0.061,1.266383 -0.31366,0.415604 -1.66171,1.354865 -2.62076,1.826048 -0.57347,0.281744 -1.19527,0.373526 -1.53369,0.226401 z"
       id="path5372"
       transform="matrix(0.70965796,0,0,0.70965796,49.01165,9.6367202)" /><path
       style="display:none;fill:#ffffff;fill-opacity:1;stroke-width:0.0734253"
       d="m 140.00155,92.679465 -0.33041,-0.16152 -0.0367,-0.62274 -0.0367,-0.62274 -0.12222,-0.0233 -0.12222,-0.0233 -0.0375,0.13267 -0.0375,0.13267 -0.0495,0.24537 -0.0495,0.24536 -0.22201,-0.20865 -0.22201,-0.20865 -0.10109,-0.23628 -0.1011,-0.23627 v -0.47402 -0.47402 l 0.0879,-0.38057 0.0878,-0.38057 0.0774,-0.0243 0.0774,-0.0243 2.57752,-0.95906 2.57753,-0.95906 h 0.0446 0.0446 l 0.0713,0.27534 0.0713,0.27535 0.048,0.40512 0.048,0.40512 -0.0846,0.46646 -0.0846,0.46646 -0.16751,0.37878 -0.16752,0.37879 -0.0521,0.27759 -0.0521,0.27759 -0.26619,0.29464 -0.26619,0.29464 -0.262,0.13211 -0.26199,0.13211 -0.1641,0.0507 -0.1641,0.0507 -0.18103,-0.40934 -0.18104,-0.40934 -0.11871,-0.0456 -0.11871,-0.0456 -0.0806,0.0806 -0.0806,0.0806 0.16262,0.55968 0.16262,0.55968 -0.0955,0.11539 -0.0955,0.1154 -0.2937,0.1336 -0.29371,0.1336 -0.40384,-0.003 -0.40384,-0.003 -0.33041,-0.16153 z m -10.1968,-1.1295 -0.46793,-0.27894 -0.67016,-0.55926 -0.67016,-0.55925 -0.24383,-0.25729 -0.24383,-0.25728 0.36793,-0.22639 0.36793,-0.2264 0.0804,-0.15023 0.0804,-0.15023 h -0.18452 -0.18452 l -0.40486,0.19856 -0.40485,0.19856 -0.2576,-0.24968 -0.2576,-0.24967 5.5e-4,-0.0407 5.6e-4,-0.0407 0.61699,-0.28211 0.61699,-0.28211 0.1661,-0.1768 0.16609,-0.1768 h -0.27394 -0.27394 l -0.63026,0.26089 -0.63025,0.2609 -0.088,-0.0338 -0.088,-0.0337 -0.52007,-0.7234 -0.52007,-0.72341 -0.60155,-0.9906 -0.60156,-0.9906 -0.61126,-1.24823 -0.61127,-1.24823 -0.38107,-0.95453 -0.38107,-0.95453 -0.13739,-0.39698 -0.13737,-0.39698 v -0.0875 -0.0875 l 0.29153,-0.13146 0.29152,-0.13146 0.11768,-0.13003 0.11768,-0.13003 -0.14336,-0.0455 -0.14335,-0.0455 -0.34624,0.11755 -0.34623,0.11755 -0.0206,-0.0236 -0.0206,-0.0236 -0.0474,-0.15459 -0.0474,-0.1546 0.64405,-0.23331 0.64406,-0.23331 0.5874,-0.30964 0.5874,-0.30963 v -0.0734 -0.0734 l -0.22027,-0.0197 -0.22028,-0.0197 -1.0815,0.46777 -1.08151,0.46778 -0.0327,-0.1177 -0.0327,-0.1177 -0.2573,-1.02795 -0.25731,-1.02796 -0.1534,-0.75502 -0.15341,-0.75502 -0.0408,-0.41979 -0.0408,-0.41978 0.38501,-0.22028 0.385,-0.22027 0.0304,-0.0918 0.0304,-0.0918 h -0.18072 -0.18071 l -0.27389,0.11444 -0.2739,0.11444 -0.0192,-0.0226 -0.0192,-0.0226 -0.083,-0.89265 -0.083,-0.89265 0.001,-1.2734 10e-4,-1.27339 0.10339,-0.77658 0.10339,-0.77658 0.12086,-0.47165 0.12085,-0.47166 0.10829,-0.16804 0.10828,-0.16804 1.11618,-0.53944 1.11619,-0.53944 2.16605,-0.88431 2.16605,-0.88431 0.54342,-0.2144 0.54342,-0.2144 0.29002,0.29002 0.29002,0.29002 0.31893,0.14108 0.31894,0.14108 0.46177,0.006 0.46177,0.007 0.0978,0.1397 0.0978,0.1397 0.2782,0.14192 0.2782,0.14193 0.35942,0.0471 0.35942,0.0471 0.49719,-0.11589 0.49719,-0.1159 0.27671,-0.14117 0.27671,-0.14117 0.29955,-0.2907 0.29956,-0.29071 0.0909,-0.37906 0.0909,-0.37905 0.26921,-0.13734 0.26922,-0.13735 0.33911,-0.36253 0.3391,-0.36254 0.12591,-0.24347 0.12591,-0.24348 -0.0495,-0.37382 -0.0495,-0.37383 -0.14111,-0.31934 -0.14111,-0.31934 -0.26136,-0.35604 -0.26135,-0.35603 -0.30471,-0.22409 -0.30471,-0.22408 h -0.1691 -0.1691 v 0.13311 0.13311 l 0.2287,0.21566 0.22868,0.21566 0.35519,0.50212 0.35519,0.50211 0.0476,0.31715 0.0476,0.31715 -0.0495,0.22512 -0.0494,0.22513 -0.33181,0.36905 -0.33181,0.36905 h -0.0543 -0.0543 l -0.0674,-0.34167 -0.0674,-0.34166 -0.13059,-0.0805 -0.13058,-0.0805 -0.0702,0.11013 -0.0702,0.11014 -0.001,0.4553 -10e-4,0.45529 -0.082,0.3891 -0.082,0.38909 -0.0786,0.0975 -0.0786,0.0975 -0.33503,0.16778 -0.33502,0.16779 -0.39328,0.0927 -0.39328,0.0927 -0.39156,-0.046 -0.39157,-0.046 -0.18804,-0.0715 -0.18805,-0.0715 v -0.50154 -0.50154 l 0.1556,-0.46075 0.1556,-0.46075 -0.0699,-0.0699 -0.0699,-0.0699 -0.10735,0.0412 -0.10736,0.0412 -0.19747,0.30455 -0.19747,0.30454 -0.0854,0.43409 -0.0854,0.43409 -0.10066,0.0386 -0.10067,0.0386 -0.34427,-0.0867 -0.34426,-0.0867 -0.42535,-0.26254 -0.42535,-0.26254 v -0.1328 -0.1328 l 0.0811,-0.3891 0.0811,-0.3891 0.40623,-0.98135 0.40623,-0.98136 0.25383,-0.45668 0.25382,-0.45668 0.50833,-0.6913 0.50833,-0.6913 0.75133,-0.83372 0.75134,-0.83373 0.34188,-0.28708 0.34188,-0.28708 0.27852,0.5637 0.27853,0.56369 0.28879,0.37355 0.2888,0.37354 0.48588,0.5021 0.48588,0.5021 0.40384,0.27717 0.40384,0.27718 0.44493,0.22433 0.44493,0.22433 0.79738,0.26678 0.79738,0.26678 0.74017,0.12121 0.74018,0.12122 1.39508,1.5e-4 1.39508,1.4e-4 0.58741,-0.0934 0.5874,-0.0933 0.84439,-0.18639 0.84439,-0.1864 0.98028,-0.32749 0.98029,-0.32749 0.011,0.0232 0.011,0.0232 0.22028,0.44055 0.22027,0.44055 0.46578,-0.0263 0.46577,-0.0263 -0.12185,0.18596 -0.12185,0.18597 -0.21974,0.0766 -0.21974,0.0766 0.30278,0.44587 0.30278,0.44586 0.30423,0.22038 0.30423,0.22039 0.14991,-0.0215 0.14991,-0.0215 0.0876,-0.25699 0.0876,-0.25699 0.004,-0.99124 0.004,-0.99124 -0.14477,-0.73426 -0.14478,-0.73425 -0.22005,-0.58336 -0.22005,-0.58336 0.0163,-0.0134 0.0163,-0.0134 0.32224,-0.16257 0.32224,-0.16256 0.34375,-0.34375 0.34375,-0.34375 0.2222,-0.43888 0.2222,-0.43889 0.12731,-0.38548 0.12731,-0.38549 h 0.0928 0.0929 l 0.13987,0.15467 0.13988,0.15466 0.27802,0.1419 0.27802,0.14189 0.71322,0.004 0.71322,0.004 0.0539,0.0846 0.0539,0.0846 0.001,0.0819 0.001,0.0819 -0.79079,0.55526 -0.79079,0.55526 -0.98977,0.59273 -0.98978,0.59274 -0.12644,0.0727 -0.12644,0.0727 0.0425,0.1108 0.0425,0.1108 0.19406,-0.002 0.19407,-0.002 0.41475,-0.1706 0.41474,-0.17059 0.72335,-0.44914 0.72334,-0.44914 0.65987,-0.47349 0.65987,-0.47348 0.0539,0.0333 0.0539,0.0333 0.15617,0.34573 0.15618,0.34573 0.14269,0.40384 0.14269,0.40384 0.21675,1.09331 0.21676,1.09332 0.0844,0.1017 0.0844,0.1017 0.14258,-0.12903 0.14258,-0.12904 0.24057,-0.33173 0.24057,-0.33172 0.19372,-0.48979 0.19373,-0.48979 v -0.56335 -0.56334 l -0.14716,-0.72211 -0.14715,-0.72212 -0.16927,-0.46422 -0.16927,-0.46423 0.56536,-0.59565 0.56536,-0.59564 0.0517,-0.23564 0.0518,-0.23564 -0.0452,-0.0452 -0.0452,-0.0452 -0.31052,0.29492 -0.31052,0.29492 -0.30401,0.23263 -0.30401,0.23264 -0.54249,0.25762 -0.54248,0.25763 -0.51187,0.10842 -0.51187,0.10843 -0.52959,0.001 -0.52957,10e-4 -0.39661,-0.14839 -0.39661,-0.14838 -0.13848,-0.15301 -0.13848,-0.15301 -0.008,-0.51042 -0.008,-0.51041 -0.084,-0.084 -0.084,-0.084 -0.0679,0.0697 -0.0679,0.0698 -0.19852,0.69754 -0.19851,0.69754 -0.16666,0.33149 -0.16666,0.3315 -0.33176,0.44134 -0.33177,0.44135 -0.40834,0.38619 -0.40835,0.3862 -0.64389,0.30896 -0.64388,0.30896 -0.52433,0.0265 -0.52433,0.0265 -0.40358,-0.11732 -0.40358,-0.11733 -0.39653,-0.39023 -0.39652,-0.39024 -0.0845,-0.28937 -0.0845,-0.28937 -0.0496,-0.27534 -0.0496,-0.27535 h -0.0986 -0.0986 l -0.0494,0.26353 -0.0494,0.26352 0.0355,0.4964 0.0355,0.49639 0.21151,0.38862 0.21151,0.38861 0.27634,0.18287 0.27634,0.18288 0.56906,0.0597 0.56905,0.0597 0.15271,0.004 0.1527,0.004 0.12264,0.57073 0.12264,0.57072 v 0.0495 0.0495 l -0.92366,0.30051 -0.92367,0.3005 -0.75383,0.17812 -0.75382,0.17811 -0.85945,0.11267 -0.85944,0.11266 -0.96913,-3.1e-4 -0.96912,-3e-4 -0.66083,-0.10828 -0.66083,-0.10829 -0.55069,-0.15362 -0.55069,-0.15363 -0.61263,-0.28694 -0.61262,-0.28694 -0.45204,-0.32412 -0.45205,-0.32412 -0.39353,-0.39145 -0.39354,-0.39146 -0.31946,-0.44768 -0.31946,-0.44768 -0.29653,-0.61886 -0.29653,-0.61885 -0.19703,-0.73426 -0.19702,-0.73425 -0.005,-1.54193 -0.005,-1.54194 0.0994,-0.51397 0.0994,-0.51398 0.17295,-0.6991 0.17295,-0.6991 0.29135,-0.84283 0.29135,-0.84284 0.37637,-0.84439 0.37636,-0.84439 0.46296,-0.88111 0.46296,-0.8811 0.38256,-0.63789 0.38256,-0.6379 -0.0806,-0.15056 -0.0806,-0.15056 -0.18581,-0.0466 -0.18581,-0.0466 -0.33384,0.0376 -0.33384,0.0376 -0.60982,0.30218 -0.60982,0.30217 -0.33774,0.37566 -0.33774,0.37565 -0.0447,0.17789 -0.0446,0.17789 0.1202,0.31474 0.1202,0.31474 0.2107,0.20186 0.21069,0.20186 0.25579,0.0879 0.25578,0.0879 -0.37013,0.56708 -0.37013,0.56709 h -0.43099 -0.43099 l -0.27242,-0.13932 -0.27242,-0.13932 -0.3154,-0.31909 -0.3154,-0.3191 -0.19858,-0.40433 -0.19858,-0.40434 v -0.51397 -0.51398 l 0.0589,-0.2116 0.0589,-0.2116 0.96905,-0.9659 0.96906,-0.9659 0.62412,-0.30316 0.62411,-0.30317 0.4739,-0.12223 0.4739,-0.12223 0.77433,-0.0392 0.77434,-0.0392 0.3835,0.0714 0.3835,0.0714 0.97487,-0.781 0.97487,-0.78101 0.80066,-0.53523 0.80066,-0.53522 0.63113,-0.3167 0.63114,-0.3167 0.61954,-0.19548 0.61954,-0.19547 0.84897,-0.17764 0.84896,-0.17764 0.95453,-0.12268 0.95453,-0.12267 1.24823,0.0441 1.24823,0.0441 0.55069,0.10628 0.55069,0.10629 0.7159,0.26004 0.7159,0.26005 v -0.15334 -0.15337 l 0.14322,-0.23174 0.14322,-0.23174 0.27898,-0.15533 0.27897,-0.15532 0.39881,-0.11722 0.39881,-0.11723 h 0.29006 0.29007 l 0.24124,0.1491 0.24124,0.14909 0.40185,0.53009 0.40185,0.53009 0.11653,0.23179 0.11654,0.2318 0.1445,0.53917 0.1445,0.53918 0.0189,0.25699 0.0189,0.25698 -0.0509,0.0174 -0.0509,0.0173 -0.33826,-0.23762 -0.33826,-0.23762 -0.20351,-0.44783 -0.20351,-0.44782 -0.25222,-0.19238 -0.25221,-0.19237 -0.26904,-0.11241 -0.26903,-0.11241 h -0.29606 -0.29606 v 0.13363 0.13364 l 0.26525,0.30988 0.26524,0.30988 0.92792,0.7383 0.92791,0.73829 0.38911,0.44239 0.38911,0.44238 0.29453,0.5858 0.29454,0.58581 0.51258,1.4062 0.51257,1.4062 0.14201,0.55593 0.14201,0.55594 0.0824,0.72901 0.0824,0.72901 -0.0508,0.80768 -0.0508,0.80768 -0.0948,0.5874 -0.0948,0.5874 -0.23259,0.80768 -0.23258,0.80768 -0.25915,0.5874 -0.25914,0.58741 -0.0392,0.12849 -0.0392,0.12849 h 0.0696 0.0696 l 2.73891,-1.06466 2.73892,-1.06467 h 0.0269 0.0269 l 0.002,0.64247 0.002,0.64247 0.0619,0.47975 0.0619,0.47976 0.23099,0.3754 0.23098,0.3754 0.26577,0.12611 0.26577,0.12612 0.27703,0.0372 0.27703,0.0372 0.3751,-0.09 0.3751,-0.09 0.15163,0.19277 0.15162,0.19276 0.23215,0.12395 0.23215,0.12395 0.58741,-3e-4 0.5874,-3.1e-4 0.40657,-0.19648 0.40658,-0.19648 0.30938,-0.26482 0.30937,-0.26481 0.0466,-0.29117 0.0466,-0.29116 0.20803,-0.10758 0.20802,-0.10757 0.19133,-0.20125 0.19133,-0.20125 0.39102,-0.77333 0.39102,-0.77334 0.26321,-1.356 0.2632,-1.356 0.0399,-0.26835 0.0399,-0.26834 0.45689,-0.18255 0.4569,-0.18256 4.37796,-1.6957 4.37796,-1.69571 0.58614,-0.14 0.58613,-0.13999 0.28831,0.0527 0.28832,0.0527 0.4524,0.24113 0.4524,0.24113 0.49964,0.42308 0.49963,0.42308 0.40974,0.46829 0.40975,0.46829 0.41609,0.53966 0.41609,0.53967 -0.0358,0.058 -0.0358,0.058 -0.20142,0.0505 -0.20142,0.0506 -0.53353,0.24651 -0.53352,0.2465 v 0.12515 0.12514 l 0.34877,-0.0422 0.34877,-0.0422 0.55069,-0.18783 0.55069,-0.18782 0.0479,-5.3e-4 0.0479,-5.3e-4 0.14972,0.23647 0.14972,0.23646 -0.34351,0.18573 -0.34351,0.18573 -0.0266,0.13854 -0.0266,0.13854 0.35609,-0.0413 0.35608,-0.0413 0.15534,-0.0481 0.15533,-0.0481 0.34245,0.59371 0.34245,0.59372 0.57939,1.15779 0.57939,1.15779 0.47268,1.13642 0.47268,1.13642 0.30414,0.86757 0.30414,0.86757 v 0.0566 0.0566 l -0.97441,0.38445 -0.9744,0.38445 -0.17515,0.13212 -0.17515,0.13211 0.0435,0.11348 0.0435,0.11348 0.68381,-0.18568 0.68381,-0.18569 0.43486,-0.17538 0.43486,-0.17539 h 0.0903 0.0903 l 0.14994,0.49562 0.14993,0.49562 0.21698,0.80768 0.21697,0.80768 0.18673,0.84439 0.18673,0.84439 0.14883,0.88111 0.14882,0.8811 0.11567,0.9451 0.11568,0.9451 -0.0217,0.0148 -0.0217,0.0148 -0.29326,0.10766 -0.29324,0.10767 -0.0262,0.136 -0.0262,0.13599 0.33864,-0.0382 0.33864,-0.0382 0.0467,0.18601 0.0467,0.18602 -0.19439,0.1416 -0.19437,0.14159 v 0.11198 0.11197 l 0.19461,-0.0488 0.19461,-0.0488 -0.0446,1.34419 -0.0446,1.34418 -0.0482,0.16438 -0.0482,0.16438 -0.23055,0.14249 -0.23056,0.14249 -1.57838,0.63556 -1.57837,0.63554 -11.05052,4.42548 -11.05052,4.42547 -1.39508,0.53662 -1.39508,0.53662 -1.76221,0.68844 -1.76221,0.68843 -1.28495,0.50599 -1.28494,0.506 -1.24823,0.49064 -1.24824,0.49064 -0.34682,0.17539 -0.34682,0.17539 -3.80171,1.51217 -3.80171,1.51216 -3.19401,1.26712 -3.194,1.26712 -1.50522,0.59417 -1.50522,0.59417 -1.28494,0.52386 -1.28495,0.52385 -1.83563,0.6842 -1.83564,0.68419 -0.55069,0.14982 -0.55069,0.14982 -0.33041,0.0447 -0.33042,0.0447 z m 1.75354,-3.07794 0.29733,-0.11897 0.0638,-0.11966 0.0638,-0.11967 0.12628,-0.75615 0.12627,-0.75615 -0.0271,-0.0209 -0.0271,-0.0209 -0.499,-0.35149 -0.499,-0.35148 -0.0271,0.0272 -0.0271,0.0272 -0.22652,1.15448 -0.22651,1.15448 v 0.10599 0.10599 l 0.20192,0.0737 0.20192,0.0737 0.0903,0.006 0.0903,0.006 0.29733,-0.11897 z m 3.02438,-1.33118 0.18891,-0.20192 0.11852,-0.23499 0.11853,-0.23498 v -0.0393 -0.0393 l -1.20543,-0.80575 -1.20543,-0.80576 0.0313,-0.13149 0.0313,-0.13149 0.21961,-1.13809 0.21962,-1.1381 v -0.26847 -0.26847 l -0.14684,0.0384 -0.14686,0.0384 v -0.082 -0.082 h -0.22392 -0.22392 l -0.21557,0.11147 -0.21556,0.11147 -0.046,0.18341 -0.046,0.18341 0.0406,0.15528 0.0406,0.15527 -0.0986,0.0986 -0.0986,0.0986 -0.0497,0.38739 -0.0497,0.38739 -0.0697,0.2728 -0.0697,0.2728 -0.88517,-0.58486 -0.88517,-0.58485 h -0.11583 -0.11584 l -0.31259,0.18319 -0.3126,0.18319 -0.0496,0.22582 -0.0496,0.22581 0.13546,0.10363 0.13547,0.10363 1.35837,0.92043 1.35837,0.92043 1.21152,0.80519 1.21151,0.80519 0.11476,10e-4 0.11476,0.001 0.18892,-0.20192 z m -2.51106,-4.97227 v -0.10783 l 0.11014,0.0423 0.11014,0.0423 v 0.0656 0.0656 h -0.11014 -0.11014 z m 0.19516,-0.29974 0.0408,-0.1064 h 0.0656 0.0656 v 0.0656 0.0656 l -0.1064,0.0408 -0.1064,0.0408 z m 7.47213,-0.34471 -0.12781,-0.38581 -0.20861,-0.46575 -0.20861,-0.46575 v -0.0427 -0.0427 l 0.16521,0.15334 0.16521,0.15335 0.41924,0.2288 0.41924,0.22879 0.31501,0.11409 0.31501,0.11408 0.40384,0.0799 0.40384,0.0799 1.02796,0.006 1.02795,0.006 0.55069,-0.16789 0.55069,-0.16789 0.66083,-0.32293 0.66083,-0.32292 0.36689,-0.2618 0.3669,-0.26179 h -0.12826 -0.12826 v -0.0734 -0.0734 h 0.14685 0.14685 v -0.0734 -0.0734 h 0.11013 0.11014 v -0.0757 -0.0757 l 0.1285,-0.0459 0.12849,-0.0459 0.26486,-0.28605 0.26485,-0.28604 0.0906,0.21883 0.0906,0.21882 0.10619,0.0408 0.1062,0.0408 0.0407,-0.10617 0.0407,-0.10617 -0.11866,-0.35724 -0.11865,-0.35725 0.18181,-0.39809 0.18181,-0.3981 0.1136,-0.43762 0.1136,-0.43762 v -0.70646 -0.70647 l -0.15145,-0.48251 -0.15146,-0.48252 -0.21405,-0.33753 -0.21406,-0.33753 h -0.11175 -0.11176 v -0.0734 -0.0734 h 0.0803 0.0803 l -0.31479,-0.37598 -0.3148,-0.37598 -0.5915,-0.38013 -0.59151,-0.38013 -0.2937,-0.12246 -0.2937,-0.12247 -0.40384,-0.12881 -0.40384,-0.1288 -0.90298,-0.002 -0.90298,-0.002 0.0342,-0.11014 0.0342,-0.11014 0.27028,-0.61077 0.27029,-0.61077 -0.0313,-0.0313 -0.0313,-0.0313 -1.90333,0.76088 -1.90334,0.76089 -0.0901,0.17489 -0.0901,0.17489 -0.70286,1.46267 -0.70287,1.46266 0.022,0.18113 0.022,0.18114 0.88111,0.44311 0.8811,0.44311 0.14685,0.0551 0.14685,0.0551 0.20255,0.044 0.20255,0.044 0.21765,-0.34319 0.21764,-0.3432 0.0496,0.13972 0.0495,0.13971 0.0956,0.23864 0.0956,0.23863 h 0.11389 0.11388 v -0.18085 -0.18084 l -0.1442,-0.36585 -0.1442,-0.36584 0.41954,-0.26314 0.41955,-0.26315 0.46665,-0.1447 0.46664,-0.14469 h 0.56634 0.56634 l 0.39881,0.1176 0.39881,0.11761 0.32088,0.26166 0.32088,0.26167 0.10132,0.24248 0.10131,0.24249 -8.3e-4,0.38784 -8.3e-4,0.38785 -0.17145,0.36712 -0.17146,0.36713 -0.21222,0.25139 -0.21222,0.25139 -0.43635,0.28203 -0.43635,0.28202 -0.48256,0.15246 -0.48256,0.15246 -0.55069,0.006 -0.55069,0.006 -0.41986,-0.13245 -0.41987,-0.13246 -0.29528,-0.25274 -0.29527,-0.25275 -0.25703,-0.45383 -0.25702,-0.45384 -0.0609,-0.093 -0.0609,-0.093 -0.83931,0.40664 -0.83931,0.40664 -0.11014,0.0608 -0.11014,0.0608 -0.22027,0.11594 -0.22028,0.11594 -0.0226,0.2194 -0.0226,0.2194 0.19581,0.57518 0.19582,0.57517 0.40712,0.88111 0.40712,0.8811 0.31821,0.4525 0.31821,0.45251 0.0926,0.0321 0.0926,0.0321 0.0244,-0.0621 0.0244,-0.0621 -0.12781,-0.38581 z m 4.22762,-1.30363 v -0.0734 h 0.0734 0.0734 v 0.0734 0.0734 h -0.0734 -0.0734 z m 0.88111,-0.8811 v -0.0734 h 0.0734 0.0734 v 0.0734 0.0734 h -0.0734 -0.0734 z m -2.64332,-8.66419 v -0.0734 h 0.11014 0.11014 v 0.0734 0.0734 h -0.11014 -0.11014 z m -13.83907,10.35758 0.47565,-0.21567 v -0.0968 -0.0968 l -0.79665,-1.8493 -0.79665,-1.84929 0.33774,-0.14114 0.33775,-0.14115 1.08189,-0.41902 1.08189,-0.41902 0.0384,-0.0621 0.0384,-0.0621 -0.1965,-0.46502 -0.1965,-0.46502 -0.0511,-0.0599 -0.0511,-0.0598 -0.87265,0.33076 -0.87265,0.33077 -0.77097,0.30257 -0.77097,0.30256 -0.14685,0.0611 -0.14685,0.0612 -0.17532,0.20359 -0.17533,0.2036 0.13128,0.37328 0.13128,0.37329 0.84149,1.98249 0.84148,1.98248 0.0329,0.0551 0.0329,0.0551 h 0.0707 0.0707 z m 2.11999,-0.81309 1.03569,-0.44136 0.1034,-0.0658 0.10339,-0.0658 -0.13071,-0.28219 -0.13071,-0.28219 -0.14218,-0.23587 -0.14217,-0.23587 -0.3812,0.14877 -0.3812,0.14877 -0.75261,0.35794 -0.75261,0.35794 v 0.0853 0.0853 l 0.19884,0.4332 0.19884,0.4332 h 0.0688 0.0688 z m 0.66856,-1.24743 -0.0454,-0.0734 h 0.11446 0.11448 v 0.0734 0.0734 h -0.0691 -0.0691 z m -1.58934,-0.51654 0.92852,-0.3697 0.23326,-0.12593 0.23326,-0.12592 -0.2402,-0.47727 -0.24021,-0.47726 -0.11324,-0.0222 -0.11325,-0.0221 -1.01791,0.41311 -1.0179,0.41311 -0.0677,0.0659 -0.0677,0.0659 0.13797,0.4059 0.13797,0.4059 h 0.0582 0.0582 v 0.11014 0.11013 h 0.0811 0.0811 z m 27.61864,-1.94556 v -0.18593 l -0.10916,-0.26125 -0.10916,-0.26126 0.21365,-0.21365 0.21365,-0.21365 h 0.0681 0.0681 l 0.17619,-0.23162 0.17619,-0.23163 0.20192,-0.25574 0.20192,-0.25573 v -0.0663 -0.0663 l 0.1429,-0.19894 0.1429,-0.19895 0.1557,-0.47112 0.15569,-0.47112 -0.043,-0.17135 -0.043,-0.17135 h 0.0648 0.0648 l 0.0944,-0.44469 0.0944,-0.44468 -0.047,-1.11561 -0.047,-1.1156 -0.10596,-0.36713 -0.10596,-0.36713 -0.11562,-0.44055 -0.11561,-0.44055 -0.25668,-0.51398 -0.25668,-0.51397 2.7e-4,-0.0918 2.8e-4,-0.0918 -0.0884,0.0183 -0.0884,0.0183 -0.0125,-0.0918 -0.0125,-0.0918 -0.009,-0.10784 -0.009,-0.10783 -0.11013,0.0423 -0.11014,0.0423 v -0.0752 -0.0752 l 0.0838,-0.0279 0.0838,-0.0279 -0.19482,-0.30861 -0.19482,-0.30861 h -0.0664 -0.0664 l -0.0328,0.0918 -0.0328,0.0918 -0.063,-0.0591 -0.063,-0.0591 0.10801,-0.0669 0.10801,-0.0669 -0.12324,-0.20447 -0.12325,-0.20448 -0.15909,-0.0244 -0.15908,-0.0244 0.0331,-0.12655 0.0331,-0.12656 -0.20967,0.0308 -0.2096,0.0308 v -0.0818 -0.0818 h 0.11013 0.11014 v -0.0628 -0.0628 l -0.38548,-0.36428 -0.38548,-0.36428 -0.22028,-0.14141 -0.22028,-0.1414 -0.14685,-0.13642 -0.14685,-0.13642 -0.5874,-0.27894 -0.5874,-0.27894 -0.53518,-0.12818 -0.53518,-0.12818 -0.70405,0.042 -0.70406,0.042 -0.057,0.0604 -0.057,0.0604 0.54764,1.32166 0.54763,1.32166 0.43403,0.13636 0.43403,0.13636 0.36056,0.23076 0.36055,0.23077 0.46796,0.53319 0.46796,0.53319 0.26992,0.45805 0.26992,0.45806 0.20735,0.42041 0.20734,0.42042 0.0551,0.002 0.0551,0.002 v -0.0734 -0.0734 h 0.0746 0.0746 l -0.0168,0.22027 -0.0168,0.22028 h -0.0657 -0.0657 l 0.0507,0.12849 0.0507,0.1285 0.0391,0.95088 0.0391,0.95088 -0.0935,0.65243 -0.0935,0.65242 -0.0891,0.0891 -0.0891,0.0891 -0.11906,0.23024 -0.11906,0.23023 0.50861,1.30811 0.50861,1.30811 0.12221,0.2937 0.12222,0.2937 0.11421,0.1285 0.11421,0.12849 h 0.062 0.062 v -0.18592 z m -1.46851,-3.19598 v -0.0778 l 0.0734,0.0454 0.0734,0.0454 v 0.0324 0.0324 h -0.0734 -0.0734 z m 1.54193,-3.59351 v -0.0734 h -0.11013 -0.11014 v -0.0734 -0.0734 h -0.25699 -0.25699 v -0.0734 -0.0734 h 0.11014 0.11014 v -0.11799 -0.118 l 0.11292,0.0433 0.11291,0.0433 0.0418,-0.1089 0.0418,-0.1089 h 0.10228 0.10228 v 0.14685 0.14686 h -0.11013 -0.11014 v 0.11013 0.11014 h 0.0787 0.0787 l 0.10489,0.10489 0.1049,0.1049 v 0.042 0.042 h -0.0734 -0.0734 z m 0.36713,-0.83583 v -0.24843 l 0.14685,-0.0384 0.14685,-0.0384 v 0.10186 0.10187 l 0.18357,0.0461 0.18356,0.0461 v 0.0655 0.0655 h -0.18356 -0.18357 v 0.0734 0.0734 h -0.14685 -0.14685 z m -1.24823,-0.55926 v -0.14685 h 0.0734 0.0734 v 0.14685 0.14686 h -0.0734 -0.0734 z m 1.39508,0.0734 v -0.0734 h 0.0778 0.0778 l -0.0454,0.0734 -0.0454,0.0734 h -0.0324 -0.0324 z m -1.39508,-0.51398 v -0.0734 h 0.0734 0.0734 v 0.0734 0.0734 h -0.0734 -0.0734 z m 0,-0.51398 v -0.0734 h 0.0778 0.0778 l -0.0454,0.0734 -0.0454,0.0734 h -0.0324 -0.0324 z m -0.14685,-0.73425 v -0.0734 h -0.18356 -0.18357 v -0.14684 -0.14686 h 0.0734 0.0734 v -0.10402 -0.10401 l -0.0918,-0.0428 -0.0918,-0.0428 0.0918,-0.0428 0.0918,-0.0428 v -0.0706 -0.0706 l -0.18022,-0.18023 -0.18023,-0.18022 h -0.0706 -0.0707 l -0.0328,0.0918 -0.0328,0.0918 -0.0651,-0.0651 -0.0651,-0.0651 0.0918,-0.0328 0.0918,-0.0328 v -0.10402 -0.10402 h 0.0674 0.0674 l 0.11614,0.0446 0.11614,0.0446 v 0.10753 0.10752 l 0.12046,0.12046 0.12046,0.12046 0.10655,0.0156 0.10654,0.0156 0.0483,0.0523 0.0483,0.0523 -0.0918,0.0328 -0.0918,0.0328 v 0.0673 0.0673 h 0.14685 0.14685 v 0.18356 0.18357 h -0.14685 -0.14685 v 0.0622 0.0622 l 0.16521,0.0797 0.1652,0.0797 -0.1652,0.005 -0.16521,0.005 z m 0.45228,-0.0435 -0.0984,-0.11134 0.15348,-0.13311 0.15348,-0.13311 v -0.0832 -0.0832 h 0.18356 0.18356 v 0.11447 0.11447 l -0.0734,-0.0454 -0.0734,-0.0454 v 0.0778 0.0778 h 0.0734 0.0734 v 0.11014 0.11013 h -0.0734 -0.0734 v -0.0734 -0.0734 h -0.11014 -0.11014 v 0.14684 0.14686 l -0.0551,-0.003 -0.0551,-0.003 -0.0984,-0.11134 z m -1.16971,-0.77795 0.0291,-0.0872 0.0872,-0.0291 0.0872,-0.0291 v 0.11626 0.11626 h -0.11625 -0.11626 z m 1.08456,-0.0597 v -0.0734 h 0.0734 0.0734 v 0.0734 0.0734 h -0.0734 -0.0734 z m 0.1323,-0.37474 0.0312,-0.21267 h 0.0651 0.0651 v 0.17571 0.17571 l -0.0963,0.037 -0.0963,0.037 z m -0.49943,-0.21267 v -0.14685 h 0.0734 0.0734 v 0.14685 0.14685 h -0.0734 -0.0734 z m -1.02796,-0.0734 v -0.0734 h 0.0734 0.0734 v 0.0734 0.0734 h -0.0734 -0.0734 z m 0.66083,0 v -0.0734 h 0.11014 0.11014 v 0.0734 0.0734 h -0.11014 -0.11014 z m -0.2937,-0.14685 v -0.0734 h 0.0734 0.0734 v 0.0734 0.0734 h -0.0734 -0.0734 z m -0.73425,-0.44056 v -0.14685 h 0.0734 0.0734 v 0.0734 0.0734 h 0.11014 0.11013 v 0.0734 0.0734 h -0.18356 -0.18356 z m -2.53318,-1.68878 0.0454,-0.0734 h 0.0324 0.0324 v 0.0734 0.0734 h -0.0778 -0.0778 z m 3.14505,13.64699 0.41608,-0.0836 -0.004,-0.11836 -0.004,-0.11835 -0.49655,-1.24795 -0.49654,-1.24795 -0.39878,-0.0594 -0.39878,-0.0594 -0.27721,0.0245 -0.2772,0.0245 0.0202,-0.12646 0.0202,-0.12645 -0.33706,-0.24279 -0.33706,-0.24279 -0.32377,-0.37581 -0.32377,-0.37581 -0.21947,-0.28473 -0.21946,-0.28473 -0.25076,-0.51427 -0.25076,-0.51426 -0.24218,-0.93131 -0.24218,-0.93129 0.068,-0.7942 0.068,-0.79419 0.10205,-0.37284 0.10205,-0.37282 0.13368,-0.21458 0.13368,-0.21457 0.13138,-0.14954 0.13137,-0.14955 -0.50289,-1.31896 -0.50289,-1.31897 -0.10095,-0.0183 -0.10095,-0.0183 -0.49239,0.36436 -0.49239,0.36435 -0.32022,0.40799 -0.32022,0.408 -0.22675,0.4575 -0.22676,0.4575 -0.14715,0.45079 -0.14715,0.45079 -0.0907,0.56238 -0.0907,0.56239 0.0433,1.04273 0.0433,1.04274 0.21904,0.84439 0.21903,0.84439 0.12261,0.2937 0.12261,0.2937 0.79843,1.62557 0.79843,1.62557 0.1922,0.22842 0.19221,0.22843 h 0.10501 0.10501 l -0.0443,-0.20192 -0.0442,-0.20192 -0.0283,-0.0918 -0.0283,-0.0918 h 0.0354 0.0354 l 0.40678,0.33133 0.40679,0.33134 0.17575,0.11515 0.17575,0.11516 0.11984,0.0176 0.11984,0.0176 0.0507,0.0821 0.0507,0.0821 0.56029,0.22435 0.5603,0.22435 0.39268,0.0653 0.3927,0.0653 0.40994,0.009 0.40995,0.009 0.41609,-0.0836 z m -1.78668,-2.63318 v -0.0734 h 0.0734 0.0734 v 0.0734 0.0734 h -0.0734 -0.0734 z m -1.90906,-0.80768 v -0.0734 h 0.0734 0.0734 v 0.0734 0.0734 h -0.0734 -0.0734 z m -1.54193,-8.07679 v -0.0734 h 0.0734 0.0734 v 0.0734 0.0734 h -0.0734 -0.0734 z m 0.51398,-1.24824 v -0.0734 h 0.0734 0.0734 v 0.0734 0.0734 h -0.0734 -0.0734 z m -0.73426,-0.14684 v -0.0734 h 0.0734 0.0734 v 0.0734 0.0734 h -0.0734 -0.0734 z m -22.85426,9.61357 0.45009,-0.152 0.0839,-0.10114 0.0839,-0.10115 -0.0628,-0.11218 -0.0628,-0.11218 -1.37005,-1.48867 -1.37006,-1.48866 -0.36226,-0.35489 -0.36226,-0.35488 -0.37675,0.19091 -0.37676,0.19092 v 0.10278 0.10278 l -0.0918,0.0314 -0.0918,0.0314 0.18356,0.25958 0.18357,0.25958 1.4934,1.62421 1.49341,1.62421 h 0.0526 0.0526 z m 1.01791,-3.28212 -0.0426,-2.38912 -0.0327,-0.0327 -0.0327,-0.0327 -0.57397,0.22176 -0.57396,0.22175 v 1.70299 1.70299 l 0.58674,0.53572 0.58673,0.53573 0.0625,-0.0386 0.0625,-0.0386 z m 34.61237,2.40381 v -0.0758 l -0.10639,-0.25463 -0.1064,-0.25463 h 0.10206 0.10206 l 0.0454,0.0734 0.0454,0.0734 h 0.14955 0.14954 l 0.19489,0.10262 0.1949,0.10261 0.32195,0.096 0.32195,0.096 0.63258,0.003 0.63258,0.003 0.47726,-0.053 0.47727,-0.053 0.39455,-0.11773 0.39455,-0.11774 0.59669,-0.2996 0.59669,-0.29961 0.41264,-0.31591 0.41263,-0.3159 0.34816,-0.38723 0.34815,-0.38724 0.32376,-0.552 0.32376,-0.55201 0.15002,-0.47726 0.15001,-0.47727 0.0412,-0.80768 0.0412,-0.80767 -0.12008,-0.47727 -0.12009,-0.47727 -0.26662,-0.54522 -0.26662,-0.54522 -0.56302,-0.57141 -0.56303,-0.57141 -0.37812,-0.17518 -0.37811,-0.17518 -0.10137,-0.0841 -0.10136,-0.0841 -0.58083,-0.19347 -0.58083,-0.19347 -0.8446,-0.0245 -0.8446,-0.0245 -0.55048,0.11331 -0.55048,0.11331 -0.55069,0.22576 -0.55069,0.22575 -0.49018,0.31372 -0.49019,0.31371 -0.075,-0.21527 -0.0751,-0.21528 h -0.055 -0.055 l -1.25208,0.48954 -1.25209,0.48954 -0.0568,0.0481 -0.0567,0.0482 0.55315,1.42644 0.55315,1.42643 0.16431,0.31206 0.16431,0.31205 h 0.0575 0.0575 l 0.45659,-0.15581 0.45659,-0.15582 0.48859,-0.009 0.48857,-0.009 -0.0309,0.05 -0.0309,0.05 0.0746,0.0461 0.0746,0.0461 v -0.0778 -0.0778 h 0.0787 0.0787 l 0.10795,-0.10795 0.10795,-0.10795 0.082,-0.24083 0.082,-0.24082 0.20706,-0.30464 0.20705,-0.30463 0.28897,-0.22887 0.28897,-0.22887 0.41088,-0.18811 0.41088,-0.18811 0.5316,-0.0401 0.5316,-0.0401 0.46342,0.11885 0.46341,0.11886 0.28936,0.239 0.28936,0.23899 0.1834,0.36319 0.1834,0.36319 v 0.38019 0.38019 l -0.11231,0.31834 -0.11232,0.31833 -0.25627,0.32893 -0.25627,0.32893 -0.34731,0.24771 -0.34731,0.24771 -0.22028,0.099 -0.22028,0.0991 -0.39418,0.0893 -0.39417,0.0893 -0.41736,-0.0378 -0.41737,-0.0378 -0.38378,-0.1651 -0.38378,-0.1651 -0.33486,-0.37245 -0.33486,-0.37244 -0.15861,-0.27785 -0.15859,-0.27784 -0.0925,-5.6e-4 -0.0925,-5.5e-4 -0.34802,0.23932 -0.34802,0.23932 -0.1952,0.0999 -0.19521,0.0999 -0.22122,0.20205 -0.22122,0.20205 -0.17098,0.0467 -0.17097,0.0467 -0.16672,0.14091 -0.16672,0.1409 0.0768,0.35414 0.0768,0.35413 0.15625,0.40384 0.15624,0.40384 0.31984,0.6293 0.31984,0.62931 0.15579,0.16722 0.15578,0.16722 0.0554,-0.0897 0.0554,-0.0897 -0.0733,-0.26628 -0.0733,-0.26628 -0.18566,-0.36687 -0.18566,-0.36688 0.32246,0.26454 0.32247,0.26454 0.17117,0.35933 0.17117,0.35932 0.10587,0.16521 0.10587,0.1652 h 0.10844 0.10845 v -0.0758 z m 1.32165,-1.36126 v -0.042 l 0.11364,-0.11363 0.11363,-0.11364 0.042,0.042 0.042,0.042 -0.11363,0.11363 -0.11364,0.11364 h -0.042 -0.042 z m 1.02796,-0.0315 v -0.0734 h 0.0734 0.0734 v 0.0734 0.0734 h -0.0734 -0.0734 z m -1.90906,-0.14685 v -0.0734 h 0.0734 0.0734 v 0.0734 0.0734 h -0.0734 -0.0734 z m 1.17481,-0.22028 v -0.0734 h 0.0734 0.0734 v 0.0734 0.0734 h -0.0734 -0.0734 z m 0.73425,-5.8006 v -0.0734 h 0.0734 0.0734 v 0.0734 0.0734 h -0.0734 -0.0734 z m -27.95573,7.02236 1.11875,-0.47594 0.96848,-0.40962 0.96847,-0.40962 h 0.0526 0.0526 l 1.98085,-0.82603 1.98086,-0.82604 0.14235,-0.33041 0.14236,-0.33042 -0.0369,-0.18356 -0.0369,-0.18357 -0.20713,-0.4583 -0.20712,-0.4583 -0.0918,-5.5e-4 -0.0918,-5.6e-4 v -0.15999 -0.16 l -0.0882,-0.24384 -0.0882,-0.24385 -0.11374,5.6e-4 -0.11374,5.5e-4 -0.29371,0.08 -0.2937,0.08 -0.22027,0.0948 -0.22028,0.0948 -0.44055,0.16865 -0.44055,0.16866 -0.15607,0.0992 -0.15607,0.0991 -0.17434,0.0321 -0.17435,0.0321 -0.33041,0.14574 -0.33042,0.14574 -0.95453,0.39717 -0.95453,0.39718 -0.2937,0.0939 -0.2937,0.094 -1.10138,0.47536 -1.10138,0.47537 -0.47727,0.24232 -0.47726,0.24232 -0.14074,0.10575 -0.14073,0.10574 0.2283,0.4693 0.22831,0.4693 0.22696,0.47727 0.22695,0.47726 0.0893,0.14685 0.0893,0.14685 0.0644,0.0999 0.0644,0.0999 0.24864,-0.0404 0.24864,-0.0403 1.11875,-0.47594 z m 39.30321,-4.15351 0.0541,0.0875 0.44951,-0.042 0.44951,-0.042 0.12759,-0.049 0.12759,-0.049 -5.5e-4,-0.0839 -5.6e-4,-0.0839 -0.49752,-1.28494 -0.49753,-1.28495 -0.36463,-0.0455 -0.36464,-0.0456 -0.25699,-0.11026 -0.25699,-0.11027 -0.36712,-0.27678 -0.36713,-0.27677 -0.39334,-0.46036 -0.39334,-0.46036 -0.28483,-0.55001 -0.28484,-0.55002 -0.18121,-0.5028 -0.1812,-0.5028 -0.0771,-0.51398 -0.0771,-0.51398 -0.0271,-0.35595 -0.0272,-0.35595 0.055,-0.48844 0.0549,-0.48844 0.0817,-0.2937 0.0817,-0.2937 0.15549,-0.25312 0.15548,-0.25313 0.19878,0.4683 0.19878,0.46829 0.12038,0.0759 0.12038,0.0759 0.0396,-0.0396 0.0396,-0.0396 -0.10776,-0.41371 -0.10776,-0.41371 -0.39556,-0.97591 -0.39557,-0.97591 -0.20544,-0.5874 -0.20543,-0.58741 -0.0573,-0.0655 -0.0573,-0.0655 -0.35305,0.23102 -0.35305,0.23101 -0.22028,0.20407 -0.22028,0.20407 -0.30114,0.36464 -0.30115,0.36464 -0.30518,0.62412 -0.30518,0.62411 -0.18944,0.80768 -0.18944,0.80768 -0.0254,0.51398 -0.0254,0.51398 0.0664,0.33041 0.0664,0.33042 0.0832,0.5874 0.0832,0.5874 0.18312,0.5874 0.18313,0.58741 0.11331,0.25699 0.11332,0.25698 0.24062,0.51398 0.24062,0.51398 0.38001,0.58192 0.38001,0.58193 0.64103,0.64102 0.64103,0.64103 0.57298,0.37405 0.57299,0.37405 h 0.0869 0.0869 l 0.30413,0.14694 0.30413,0.14694 0.57241,0.10057 0.57241,0.10056 0.0847,-0.10505 0.0847,-0.10504 0.0541,0.0875 z m 0.0335,-0.37239 v -0.0734 h 0.0734 0.0734 v 0.0734 0.0734 h -0.0734 -0.0734 z m -0.51398,-0.69754 v -0.11013 h 0.0734 0.0734 v 0.11013 0.11014 h -0.0734 -0.0734 z m -1.39509,-0.55069 v -0.0734 h 0.0734 0.0734 v 0.0734 0.0734 h -0.0734 -0.0734 z m 12.22972,1.1654 0.37152,-0.13754 0.1269,-0.0928 0.12689,-0.0928 -0.33937,-0.99019 -0.33937,-0.99018 -0.0391,-0.12849 -0.0391,-0.1285 h 0.0313 0.0313 l 0.54058,0.26631 0.54059,0.26632 0.18926,-0.11312 0.18926,-0.11311 0.25819,-0.4787 0.25819,-0.47869 0.0382,-0.0382 0.0382,-0.0382 0.34827,0.93272 0.34827,0.93271 0.0655,0.10514 0.0655,0.10513 0.3021,-0.0905 0.30209,-0.0905 0.33717,-0.14453 0.33718,-0.14453 -0.0389,-0.23722 -0.0389,-0.23722 -0.38017,-1.02795 -0.38018,-1.02796 -0.29198,-0.74898 -0.29198,-0.74898 -0.13993,-0.0444 -0.13993,-0.0444 -0.13127,0.0702 -0.13126,0.0703 -0.0734,0.007 -0.0734,0.007 -0.25699,0.0459 -0.25699,0.0459 -0.1285,0.11222 -0.12849,0.11222 v 0.0703 0.0703 l -0.31823,0.63568 -0.31822,0.63569 -0.75994,-0.35482 -0.75993,-0.35481 -0.18315,0.046 -0.18314,0.046 -0.45683,0.21359 -0.45685,0.21359 0.0639,0.27735 0.0639,0.27735 0.51616,1.43043 0.51616,1.43043 8.4e-4,0.0748 8.3e-4,0.0748 0.1819,0.39073 0.1819,0.39074 0.16615,-0.0513 0.16615,-0.0513 0.37152,-0.13754 z m 0.80558,-3.83023 -0.0571,-0.13166 0.0458,-0.0458 0.0458,-0.0458 0.0432,0.0432 0.0432,0.0432 -0.0318,0.13424 -0.0318,0.13425 z m -8.85005,3.61678 v -0.0708 h 0.10952 0.10951 l 0.0917,-0.14685 0.0917,-0.14686 h 0.0802 0.0802 l 0.21699,-0.27534 0.21699,-0.27534 0.27718,-0.42324 0.27718,-0.42324 -0.0461,-0.16417 -0.0461,-0.16416 0.0714,0.10338 0.0714,0.10337 0.18839,-0.59637 0.18839,-0.59638 0.0749,-0.46153 0.0749,-0.46153 5.5e-4,-0.89686 5.6e-4,-0.89686 -0.1408,-0.7263 -0.14079,-0.72631 -0.22873,-0.68271 -0.22873,-0.68272 -0.33545,-0.64949 -0.33545,-0.64949 h -0.066 -0.066 v -0.0825 -0.0825 l -0.33935,-0.47557 -0.33936,-0.47557 -0.51531,-0.5082 -0.51531,-0.5082 -0.53235,-0.35606 -0.53236,-0.35606 -0.61382,-0.245 -0.61382,-0.245 -0.96921,-0.003 -0.96922,-0.003 -0.0701,0.0734 -0.0701,0.0734 0.54064,1.35827 0.54063,1.35826 0.26976,0.056 0.26975,0.056 0.41249,0.22182 0.41248,0.22181 0.2937,0.27757 0.2937,0.27757 0.31916,0.42381 0.31915,0.42382 0.28685,0.58088 0.28685,0.58089 0.19095,0.64274 0.19096,0.64274 0.0366,0.8811 0.0367,0.88111 -0.118,0.50137 -0.11799,0.50138 -0.18406,0.31407 -0.18405,0.31407 0.51844,1.34523 0.51843,1.34522 0.0375,0.0606 0.0375,0.0606 0.1424,-0.0762 0.14239,-0.0762 v -0.0708 z m -0.0734,-1.24565 v -0.0734 h 0.0734 0.0734 v 0.0734 0.0734 h -0.0734 -0.0734 z m 0.66082,-3.45099 v -0.0734 h 0.11014 0.11014 v 0.0734 0.0734 h -0.11014 -0.11014 z m -19.13191,0.50329 1.25284,-0.52467 1.02795,-0.43383 1.02796,-0.43384 0.33041,-0.14949 0.33041,-0.14949 0.16521,-0.0792 0.16521,-0.0792 v -0.0498 -0.0498 l 0.21408,-0.006 0.21409,-0.006 0.22282,-0.11522 0.22282,-0.11523 h 0.0848 0.0848 l 0.35874,-0.18018 0.35874,-0.18019 0.11354,-0.0217 0.11354,-0.0217 0.19921,0.36213 0.19921,0.36213 0.0918,0.0295 0.0918,0.0295 v -0.1553 -0.15529 l -0.21649,-0.72874 -0.2165,-0.72873 -0.10573,-0.1684 -0.10574,-0.1684 -0.0914,-0.29371 -0.0914,-0.2937 -0.21045,-0.28981 -0.21046,-0.28981 v -0.0957 -0.0957 h -0.22147 -0.22147 l -0.89827,0.37029 -0.89826,0.37029 -0.51398,0.21171 -0.51397,0.21172 -2.12934,0.90091 -2.12934,0.9009 -0.16959,0.10705 -0.16958,0.10705 0.0761,0.0471 0.0761,0.0471 -0.008,0.25369 -0.008,0.25368 0.11261,0.36713 0.11261,0.36713 0.23615,0.5874 0.23614,0.5874 0.0325,0.0551 0.0325,0.0551 h 0.0461 0.0461 z m 3.41888,-2.77948 v -0.0734 h 0.0734 0.0734 v 0.0734 0.0734 h -0.0734 -0.0734 z m -2.56988,-0.5874 v -0.0734 h 0.0734 0.0734 v 0.0734 0.0734 h -0.0734 -0.0734 z m 3.08386,-0.14685 v -0.0734 h 0.0778 0.0778 l -0.0454,0.0734 -0.0454,0.0734 h -0.0324 -0.0324 z m 21.22206,2.13875 0.40597,-0.15467 -0.027,-1.0104 -0.027,-1.01039 -0.0485,-1.57778 -0.0485,-1.57777 -0.11495,-0.022 -0.11495,-0.022 -0.60574,0.23131 -0.60573,0.23131 0.0472,2.46985 0.0472,2.46985 0.0323,0.10118 0.0323,0.10119 0.31076,-0.0375 0.31075,-0.0375 z m 2.80368,-1.04266 0.3882,-0.15215 0.20192,-0.19201 0.20192,-0.192 v -0.13882 -0.13882 l -1.04163,-1.09156 -1.04163,-1.09156 -0.0711,0.0439 -0.0711,0.0439 0.0449,-0.0726 0.0449,-0.0726 -0.31865,-0.31273 -0.31865,-0.31274 -0.0371,0.0619 -0.0371,0.0619 0.0173,0.84439 0.0173,0.84439 0.0563,0.23863 0.0563,0.23864 h -0.0914 -0.0914 l 0.0354,0.55198 0.0354,0.55198 0.0385,0.0385 0.0385,0.0385 0.43133,-0.19086 0.43132,-0.19086 0.14685,0.17349 0.14685,0.17348 0.14592,0.19783 0.14593,0.19783 h 0.0533 0.0533 z m -0.45619,-0.80239 v -0.0734 h 0.0734 0.0734 v 0.0734 0.0734 h -0.0734 -0.0734 z m -4.74097,-3.66314 0.0404,-0.0653 0.19073,-0.0479 0.19074,-0.0479 0.29162,-0.12547 0.29162,-0.12547 -0.0474,-0.25445 -0.0474,-0.25445 -0.11819,-0.22282 -0.1182,-0.22281 -0.0152,-0.0874 -0.0152,-0.0874 -0.29355,-0.75703 -0.29354,-0.75703 -0.15029,-0.37841 -0.1503,-0.37841 0.85889,-0.32763 0.85889,-0.32762 0.311,-0.0947 0.31099,-0.0947 0.11222,-0.124 0.11222,-0.124 -0.18858,-0.50101 -0.18858,-0.50101 -0.0698,-0.13048 -0.0698,-0.13048 -0.38508,0.1141 -0.38508,0.1141 -1.29682,0.51497 -1.29682,0.51496 -0.22676,0.20711 -0.22676,0.20711 v 0.15426 0.15426 l 0.74224,1.85072 0.74224,1.85073 0.11329,0.27534 0.11329,0.27535 h 0.13138 0.13138 z m 2.37621,-0.86148 0.71269,-0.26595 0.2937,-0.14692 0.2937,-0.14691 0.0299,-0.027 0.0299,-0.027 -0.25016,-0.58749 -0.25016,-0.58748 -0.20491,-5.9e-4 -0.2049,-6.6e-4 -0.82305,0.33781 -0.82305,0.33782 -0.12045,0.10683 -0.12044,0.10683 0.29289,0.58331 0.29289,0.58331 h 0.0694 0.0694 l 0.71269,-0.26595 z m -44.02553,-1.34131 0.47012,-0.28561 0.68051,-0.34177 0.68051,-0.34178 -0.0313,-0.0885 -0.0313,-0.0885 -0.35187,0.0189 -0.35187,0.0189 -0.66816,0.31689 -0.66815,0.31689 -0.23863,0.27251 -0.23863,0.27251 v 0.10759 0.10758 h 0.13934 0.13935 z m 43.80684,-0.56348 0.75742,-0.3545 -0.0478,-0.15082 -0.0478,-0.15082 0.003,-0.1402 0.003,-0.1402 -0.0813,-0.15199 -0.0813,-0.15198 -0.0969,-0.0969 -0.0969,-0.0969 -0.0635,-0.11347 -0.0635,-0.11347 -0.50716,0.2009 -0.50717,0.20089 -0.43492,0.21738 -0.43492,0.21738 -0.0791,0.0843 -0.0791,0.0843 -0.0127,0.14347 -0.0127,0.14347 0.14119,0.19828 0.14118,0.19828 v 0.085 0.085 l 0.12827,0.17005 0.12827,0.17005 0.29393,-0.0915 0.29393,-0.0915 z m -0.79412,-1.05998 v -0.0734 h 0.0734 0.0734 v 0.0734 0.0734 h -0.0734 -0.0734 z m -39.19442,0.35835 0.15136,-0.61534 0.16747,-0.37997 0.16746,-0.37998 0.29407,-0.4277 0.29406,-0.42771 0.8838,-0.87654 0.8838,-0.87655 0.64589,0.30347 0.64589,0.30347 0.65766,0.1876 0.65765,0.18759 h 0.48846 0.48845 l 0.35711,-0.31206 0.35711,-0.31206 0.22228,-0.24985 0.22228,-0.24986 0.0808,-0.11727 0.0808,-0.11727 0.0491,-0.20192 0.0491,-0.20192 h -0.13918 -0.13919 l -0.64316,0.60664 -0.64317,0.60664 -1.1414,-0.57098 -1.1414,-0.57099 -0.037,-0.037 -0.037,-0.037 0.28416,-0.291 0.28416,-0.29101 -0.0498,-0.0498 -0.0498,-0.0498 -0.30637,0.0918 -0.30636,0.0918 -0.48286,0.29335 -0.48286,0.29334 -0.47784,0.33905 -0.47783,0.33905 -0.83309,0.81116 -0.83308,0.81115 -0.31874,0.66083 -0.31875,0.66083 -0.0744,0.41608 -0.0744,0.41608 0.0431,0.28146 0.0431,0.28146 0.1155,0.2012 0.11551,0.2012 0.0631,-0.0631 0.0631,-0.0631 z m -6.176,-0.3935 0.58094,-0.25542 0.56905,-0.14202 0.56904,-0.14202 0.33042,-0.0545 0.33041,-0.0545 1.06467,-0.0437 1.06467,-0.0437 v -0.10981 -0.10982 l -0.29177,-0.0956 -0.29177,-0.0956 -0.91975,-0.003 -0.91975,-0.003 -0.47002,0.0853 -0.47002,0.0853 -0.46092,0.16731 -0.46092,0.1673 -0.37546,0.24093 -0.37547,0.24094 -0.10892,0.21063 -0.10892,0.21063 h 0.0818 0.0818 l 0.58094,-0.25543 z m 43.57563,-2.5221 0.6567,-0.28106 -0.0178,-0.10635 -0.0178,-0.10634 -0.52139,-1.35645 -0.52138,-1.35644 -0.0151,-0.0159 -0.0151,-0.0159 -0.65447,0.24624 -0.65447,0.24624 -0.0238,0.0713 -0.0238,0.0713 0.504,1.31364 0.50401,1.31365 0.0471,0.12849 0.047,0.12849 h 0.0248 0.0248 z m -41.30106,-1.9897 0.39899,-0.14947 0.3789,-0.33175 0.37891,-0.33176 0.1456,-0.31212 0.14559,-0.31212 0.046,-0.20192 0.0459,-0.20192 h -0.29874 -0.29875 l -0.21445,-0.11089 -0.21446,-0.1109 -0.0837,-0.15633 -0.0837,-0.15632 -0.0583,-0.20333 -0.0583,-0.20332 0.15816,-0.0424 0.15815,-0.0424 0.31206,-10e-4 0.31206,-9.9e-4 v -0.0717 -0.0717 l -0.18639,-0.12213 -0.18639,-0.12212 -0.41937,-0.1048 -0.41937,-0.10479 -1.24823,-0.039 -1.24823,-0.039 -0.54638,0.11633 -0.54638,0.11633 -0.33051,0.16623 -0.33052,0.16623 -0.075,0.12497 -0.075,0.12497 0.0544,0.0544 0.0544,0.0544 0.67728,-0.16858 0.67728,-0.16858 0.7159,-0.0398 0.7159,-0.0398 v 0.0841 0.0841 h -0.0602 -0.0602 l -0.31691,0.27126 -0.31691,0.27126 -0.17285,0.37121 -0.17285,0.37121 -2.8e-4,0.36713 -2.8e-4,0.36712 0.16483,0.26977 0.16483,0.26978 0.20684,0.16162 0.20684,0.16162 0.30714,0.10063 0.30714,0.10062 0.44539,-0.0324 0.4454,-0.0324 0.399,-0.14947 z m -0.51547,-1.8003 -0.088,-0.1061 0.024,-0.16175 0.024,-0.16175 0.12849,-0.0806 0.1285,-0.0805 0.12849,0.0805 0.12849,0.0806 0.0253,0.17195 0.0253,0.17195 -0.13115,0.0959 -0.13114,0.0959 h -0.0871 -0.0871 z m 15.7831,1.59133 v -0.0567 l -0.22738,-0.27585 -0.22737,-0.27585 -0.26866,-0.13706 -0.26866,-0.13706 -0.31632,-0.0852 -0.31633,-0.0852 -0.56291,-0.0631 -0.56292,-0.0631 -0.64397,0.0666 -0.64396,0.0666 -0.147,0.0918 -0.147,0.0918 0.0245,0.0736 0.0245,0.0736 0.37692,0.0837 0.37691,0.0837 0.93908,0.083 0.93908,0.083 0.61335,0.14649 0.61334,0.14649 0.12058,0.0704 0.12059,0.0704 0.0918,0.002 0.0918,0.002 v -0.0567 z m 23.607,-0.70607 1.02722,-0.39564 1.06466,-0.41949 1.06467,-0.41949 0.12674,-0.0676 0.12674,-0.0676 -0.15543,-0.34712 -0.15543,-0.34713 -0.11816,-0.2745 -0.11816,-0.2745 -0.0914,-8.4e-4 -0.0914,-8.3e-4 -1.52394,0.58212 -1.52394,0.58211 -0.54389,0.22617 -0.54389,0.22616 -0.1033,0.0857 -0.1033,0.0857 0.0453,0.18902 0.0454,0.18901 0.19253,0.42219 0.19254,0.4222 h 0.0796 0.0796 l 1.02721,-0.39564 z m -25.12253,-3.57178 0.39904,-0.1493 0.34855,-0.30681 0.34856,-0.30681 0.17226,-0.36993 0.17226,-0.36992 -8.3e-4,-0.33041 -8.3e-4,-0.33042 -0.13487,-0.2937 -0.13487,-0.2937 -0.15461,-0.13751 -0.15461,-0.13751 -0.2978,0.11915 -0.2978,0.11916 h -0.21315 -0.21316 l -0.22591,-0.19009 -0.22591,-0.1901 v -0.0658 -0.0659 l 0.31206,-0.19617 0.31206,-0.19617 0.61045,-0.39588 0.61045,-0.39587 0.18484,-0.0703 0.18484,-0.0703 -0.0322,-0.0913 -0.0322,-0.0913 -0.29901,0.0134 -0.29902,0.0134 -0.52144,0.21909 -0.52145,0.21909 -0.5528,0.34454 -0.55281,0.34455 -0.43784,0.40536 -0.43783,0.40536 -0.24656,0.44941 -0.24656,0.44941 -0.0466,0.20117 -0.0466,0.20117 0.15865,0.49637 0.15866,0.49637 0.27155,0.26141 0.27155,0.26141 0.25019,0.0799 0.25019,0.0799 0.45616,0.007 0.45615,0.007 z m -0.8194,-1.99472 -0.0881,-0.0881 v -0.16393 -0.16393 l 0.15038,-0.0477 0.15037,-0.0477 0.10662,0.0885 0.10661,0.0885 v 0.12317 0.12318 l -0.0881,0.0881 -0.0881,0.0881 h -0.0808 -0.0808 z m 17.31371,41.57303 -0.69754,-0.0583 -1.10138,-0.15141 -1.10138,-0.15142 -1.00054,-0.077 -1.00054,-0.077 -0.39455,-0.0715 -0.39454,-0.0715 -1.39508,-0.18492 -1.39508,-0.18491 -0.80768,-0.11296 -0.80768,-0.11296 -0.98347,-0.052 -0.98348,-0.052 2.56212,-1.01916 2.56212,-1.01916 1.2075,-0.50442 1.2075,-0.50442 h 0.45925 0.45926 l 1.30697,0.11805 1.30698,0.11804 2.38632,-0.0446 2.38632,-0.0446 1.1381,-0.11643 1.13809,-0.11643 0.86427,-0.13924 0.86427,-0.13923 0.88592,-0.22189 0.88592,-0.22189 0.55587,-0.18661 0.55588,-0.1866 0.66766,-0.3347 0.66767,-0.33471 0.42947,-0.32277 0.42947,-0.32278 h 0.60141 0.60142 l 0.43139,-0.11236 0.43138,-0.11236 0.35243,-0.17702 0.35243,-0.17701 0.40642,-0.30685 0.40641,-0.30685 v -0.10131 -0.10132 h -0.1539 -0.15389 l -0.52529,0.24879 -0.52529,0.24879 -0.26914,0.112 -0.26915,0.112 -0.5517,0.089 -0.55171,0.089 -0.38995,-0.13773 -0.38995,-0.13774 -0.34216,-0.33041 -0.34215,-0.33041 -0.0803,-0.2937 -0.0804,-0.2937 -5.5e-4,-0.22321 -5.6e-4,-0.22321 0.1092,-0.41923 0.1092,-0.41924 0.17947,-0.28429 0.17946,-0.28429 0.45513,-0.30393 0.45514,-0.30393 0.51426,-0.1562 0.51426,-0.1562 0.70607,0.0413 0.70607,0.0413 0.64589,0.18977 0.6459,0.18977 0.4546,0.22949 0.45461,0.22948 0.49758,0.49758 0.49758,0.49759 0.19162,0.41854 0.19162,0.41854 -0.0345,0.52415 -0.0345,0.52415 -0.22645,0.44652 -0.22645,0.44653 -0.55665,0.7048 -0.55663,0.7048 -0.86337,0.75774 -0.86337,0.75773 -0.32904,0.24449 -0.32904,0.2445 -0.68924,0.47596 -0.68923,0.47596 -0.92612,0.46669 -0.92613,0.4667 -0.91781,0.32966 -0.91782,0.32966 -0.91782,0.22458 -0.91781,0.22458 -0.91782,0.1457 -0.91782,0.1457 -1.21152,0.14496 -1.21152,0.14496 -1.72549,0.0344 -1.7255,0.0344 -0.69754,-0.0583 z m -4.50058,-30.37945 -0.2052,-0.21668 -0.17874,-0.50654 -0.17874,-0.50654 -0.002,-0.23863 -0.002,-0.23863 h -0.10228 -0.10228 l -0.0446,0.11614 -0.0446,0.11614 v 0.46781 0.46781 l -0.27534,0.0765 -0.27535,0.0765 -0.22027,-5.9e-4 -0.22028,-5.8e-4 -0.15358,-0.0412 -0.15357,-0.0412 -0.15805,-0.45339 -0.15805,-0.45339 -0.0648,-1.06466 -0.0648,-1.06467 0.12609,-0.2937 0.1261,-0.29371 0.37437,-0.46545 0.37437,-0.46546 0.4266,-0.33183 0.4266,-0.33183 0.57669,-0.2904 0.57668,-0.29039 0.63483,-0.20739 0.63484,-0.20738 0.56241,-0.0907 0.56242,-0.0907 0.65436,0.0774 0.65436,0.0774 0.27239,0.12989 0.27238,0.12989 -0.0459,0.33407 -0.0459,0.33408 -0.28965,1.30006 -0.28965,1.30007 -0.13759,0.3999 -0.13759,0.3999 -0.0883,0.17238 -0.0883,0.17239 -0.33427,0.34547 -0.33428,0.34547 -0.0611,-0.0377 -0.0611,-0.0377 v -0.18405 -0.18406 l -0.076,-0.14202 -0.076,-0.14203 h -0.10756 -0.10755 v 0.73052 0.73052 l -0.24173,0.18437 -0.24173,0.18438 -0.4234,0.19384 -0.42341,0.19384 -0.41789,0.0367 -0.41789,0.0367 -0.2052,-0.21669 z m -0.50145,-2.42427 0.0695,-0.12985 0.0514,-0.27399 0.0514,-0.27399 h -0.10932 -0.10932 l -0.0765,0.0922 -0.0765,0.0922 -0.0505,0.20135 -0.0505,0.20134 0.0423,0.1103 0.0423,0.11031 h 0.0731 0.0731 z"
       id="path7913"
       transform="matrix(0.70965796,0,0,0.70965796,49.01165,9.6367202)" /><rect
       style="fill:#000000;stroke-width:0.264583"
       id="rect1"
       width="199.80809"
       height="168.02045"
       x="0"
       y="-0.41282663"
       transform="translate(5.1312731,6.0807494)" /></g></svg>
